<svg height="511pt" viewBox="0 1 511 511.99874" width="511pt" xmlns="http://www.w3.org/2000/svg"><path d="m385.730469 24.878906c-23.953125-19.648437-59.132813-19.648437-83.085938 0-22.546875 18.496094-32.234375 52.984375-23.824219 80.722656 10.136719 33.457032 39.269532 57.929688 65.367188 79.238282 25.34375-20.644532 53.386719-43.371094 64.285156-75.40625 9.675782-28.441406.738282-65.289063-22.742187-84.554688zm0 0" fill="#b0e7f8"/><path d="m373.640625 78.3125c0 16.265625-13.1875 29.453125-29.453125 29.453125s-29.453125-13.1875-29.453125-29.453125 13.1875-29.453125 29.453125-29.453125 29.453125 13.1875 29.453125 29.453125zm0 0" fill="#fafafa"/><path d="m133.773438 134.0625c-26.839844-22.015625-66.261719-22.015625-93.105469 0-25.265625 20.726562-36.117188 59.371094-26.699219 90.457031 11.363281 37.492188 44.007812 64.914063 73.25 88.792969 28.410156-23.140625 59.824219-48.59375 72.039062-84.5 10.84375-31.871094.828126-73.164062-25.484374-94.75zm0 0" fill="#cbe558"/><path d="m120.226562 193.941406c0 18.226563-14.777343 33.003906-33.003906 33.003906-18.226562 0-33.003906-14.777343-33.003906-33.003906 0-18.226562 14.777344-33.003906 33.003906-33.003906 18.226563 0 33.003906 14.777344 33.003906 33.003906zm0 0" fill="#fafafa"/><path d="m467.132812 298.195312c-30.507812-25.023437-75.3125-25.023437-105.816406 0-28.71875 23.558594-41.054687 67.480469-30.347656 102.808594 12.90625 42.589844 50.046875 73.796875 83.253906 100.917969 32.277344-26.292969 67.992188-55.230469 81.871094-96.039063 12.324219-36.222656.945312-83.152343-28.960938-107.6875zm0 0" fill="#f5737f"/><path d="m451.734375 366.25c0 20.71875-16.792969 37.511719-37.511719 37.511719-20.714844 0-37.507812-16.792969-37.507812-37.511719 0-20.714844 16.792968-37.511719 37.507812-37.511719 20.71875 0 37.511719 16.796875 37.511719 37.511719zm0 0" fill="#fafafa"/><path d="m383.71875 78.316406c0-21.800781-17.734375-39.53125-39.53125-39.53125s-39.53125 17.730469-39.53125 39.53125c0 21.796875 17.734375 39.527344 39.53125 39.527344s39.53125-17.730469 39.53125-39.527344zm-39.53125 19.375c-10.683594 0-19.375-8.695312-19.375-19.375 0-10.6875 8.691406-19.378906 19.375-19.378906s19.375 8.691406 19.375 19.378906c0 10.679688-8.691406 19.375-19.375 19.375zm0 0"/><path d="m130.304688 193.941406c0-23.757812-19.328126-43.082031-43.082032-43.082031-23.757812 0-43.082031 19.324219-43.082031 43.082031 0 23.753906 19.328125 43.082032 43.082031 43.082032s43.082032-19.328126 43.082032-43.082032zm-43.082032 22.925782c-12.640625 0-22.925781-10.285157-22.925781-22.925782 0-12.644531 10.285156-22.929687 22.925781-22.929687s22.925782 10.285156 22.925782 22.929687c0 12.640625-10.285157 22.925782-22.925782 22.925782zm0 0"/><path d="m473.523438 290.40625c-34.359376-28.1875-84.238282-28.1875-118.601563 0-31.554687 25.886719-45.6875 73.628906-33.597656 113.519531 10.507812 34.675781 37.335937 63.324219 65.332031 87.917969h-123.125l-158.335938-129.722656 87.96875-47.839844c11.367188-6.179688 1.753907-23.902344-9.628906-17.707031l-86.238281 46.898437v-25.398437c26.601563-21.933594 58.964844-49.15625 71.5-86.015625 12.480469-36.679688.171875-82.160156-28.632813-105.785156-30.675781-25.167969-75.210937-25.167969-105.886718 0-28.125 23.070312-40.722656 65.621093-29.953125 101.167968 11.210937 36.984375 43.21875 66.152344 72.820312 90.628906v42.351563c0 2.980469 1.386719 5.90625 3.691407 7.796875l172.707031 141.496094c1.800781 1.476562 4.058593 2.285156 6.386719 2.285156h154.292968c3.574219 0 6.035156-1.984375 8.660156-4.144531 30.441407-25.09375 68.328126-56.316407 82.753907-98.726563 14.007812-41.175781.203125-92.214844-32.113281-118.722656zm-449.910157-68.8125c-8.371093-27.625 1.707031-61.90625 23.449219-79.738281 11.632812-9.546875 25.894531-14.316407 40.160156-14.316407 14.261719 0 28.523438 4.769532 40.160156 14.316407 22.277344 18.273437 32.085938 55.042969 22.335938 83.710937-10.347656 30.414063-37.421875 53.957032-62.488281 74.683594-26.523438-22.101562-54.339844-48.050781-63.617188-78.65625zm462.941407 181.042969c-12 35.285156-43.449219 62.375-72.324219 86.226562-30.558594-25.402343-62.863281-55.300781-73.617188-90.78125-9.667969-31.902343 1.980469-71.492187 27.09375-92.09375 12.957031-10.628906 29.476563-16.480469 46.515625-16.480469 17.042969 0 33.5625 5.851563 46.519532 16.480469 25.730468 21.105469 37.070312 63.5625 25.8125 96.648438zm0 0"/><path d="m414.222656 318.664062c-26.238281 0-47.585937 21.347657-47.585937 47.585938 0 26.242188 21.347656 47.589844 47.585937 47.589844 26.242188 0 47.589844-21.347656 47.589844-47.589844 0-26.238281-21.347656-47.585938-47.589844-47.585938zm0 75.019532c-15.125 0-27.433594-12.304688-27.433594-27.433594 0-15.125 12.308594-27.433594 27.433594-27.433594 15.128906 0 27.433594 12.308594 27.433594 27.433594 0 15.128906-12.304688 27.433594-27.433594 27.433594zm0 0"/><path d="m259.804688 276.652344c1.628906 0 3.277343-.394532 4.808593-1.226563l84.390625-45.890625c3.242188-1.765625 5.261719-5.160156 5.261719-8.855468v-31.078126c23.769531-19.605468 52.523437-43.925781 63.75-76.921874 11.273437-33.140626.140625-74.238282-25.890625-95.589844-27.777344-22.785156-68.09375-22.785156-95.871094 0-25.425781 20.855468-36.8125 59.308594-27.078125 91.433594 10.039063 33.132812 38.507813 59.199218 64.933594 81.070312v25.09375l-79.128906 43.03125c-8.949219 4.871094-5.375 18.933594 4.824219 18.933594zm28.660156-173.972656c-7.351563-24.257813 1.492187-54.355469 20.570312-70.007813 10.183594-8.355469 22.667969-12.53125 35.152344-12.53125s24.96875 4.175781 35.152344 12.53125c19.554687 16.039063 28.160156 48.332031 19.59375 73.515625-9.042969 26.582031-32.675782 47.324219-54.734375 65.585938-23.335938-19.496094-47.625-42.324219-55.734375-69.09375zm0 0"/><path d="m224.085938 294.917969c5.480468 0 10.078124-4.601563 10.078124-10.078125 0-5.480469-4.597656-10.078125-10.078124-10.078125-5.320313 0-9.820313 4.332031-10.058594 9.636719-.25 5.636718 4.40625 10.519531 10.058594 10.519531zm0 0"/></svg>