<svg height="512pt" viewBox="0 0 512 512" width="512pt" xmlns="http://www.w3.org/2000/svg"><path d="m158 433.636719 36.414062-18.207031-6.707031-13.417969-44.707031 22.351562v42.136719h63.089844v-15h-48.089844zm0 0"/><path d="m15 308.46875v-28.089844l111.566406-62.996094-7.375-13.0625-119.191406 67.300782v53.910156l104.164062-13.46875-1.925781-14.878906zm0 0"/><path d="m132.242188 196.949219 51.5625-29.109375 7.375 13.0625-51.5625 29.109375zm0 0"/><path d="m117.121094 295.246094 69.417968-8.984375 1.925782 14.878906-69.417969 8.980469zm0 0"/><path d="m322.539062 301.179688 1.925782-14.875 69.417968 8.980468-1.921874 14.878906zm0 0"/><path d="m391.808594 204.320312-7.375 13.0625 111.566406 62.996094v28.089844l-87.238281-11.285156-1.925781 14.878906 104.164062 13.46875v-53.910156zm0 0"/><path d="m319.820312 180.882812 7.375-13.0625 51.566407 29.117188-7.378907 13.0625zm0 0"/><path d="m316.585938 415.429688 36.414062 18.207031v17.863281h-48.089844v15h63.089844v-42.136719l-44.707031-22.351562zm0 0"/><path d="m288 368.597656c0 33.773438-8.882812 67.109375-25.691406 96.40625-1.398438 2.429688-4.003906 3.941406-6.808594 3.941406s-5.410156-1.511718-6.808594-3.941406c-16.808594-29.296875-25.691406-62.632812-25.691406-96.40625v-106.535156h-15v106.535156c0 36.390625 9.570312 72.304688 27.683594 103.871094 4.058594 7.078125 11.652344 11.476562 19.816406 11.476562s15.757812-4.398437 19.816406-11.476562c18.113282-31.566406 27.683594-67.480469 27.683594-103.871094v-218.136718h-15zm0 0"/><path d="m267.15625 30.65625c-3.625-1.703125-7.652344-2.601562-11.65625-2.601562s-8.03125.898437-11.65625 2.601562c-21.773438 10.222656-35.84375 32.371094-35.84375 56.425781v159.976563h15v-159.976563c0-18.269531 10.683594-35.085937 27.21875-42.847656 3.28125-1.542969 7.28125-1.542969 10.5625 0 16.535156 7.761719 27.21875 24.578125 27.21875 42.847656v48.378907h15v-48.378907c0-24.054687-14.070312-46.203125-35.84375-56.425781zm0 0"/><path d="m53 0h15v213.921875h-15zm0 0"/><path d="m53 338.378906h15v173.621094h-15zm0 0"/><path d="m443 338.378906h15v173.621094h-15zm0 0"/><path d="m443 0h15v213.921875h-15zm0 0"/><path d="m263 433h-15v-30h15zm0-45h-15v-15h15zm0 0"/><path d="m103 170h-15v-15h15zm0-45h-15v-15h15zm0-45h-15v-15h15zm0-45h-15v-15h15zm0 0"/><path d="m103 497h-15v-15h15zm0-45h-15v-15h15zm0-45h-15v-15h15zm0-45h-15v-15h15zm0 0"/><path d="m423 497h-15v-15h15zm0-45h-15v-15h15zm0-45h-15v-15h15zm0-45h-15v-15h15zm0 0"/><path d="m423 170h-15v-15h15zm0-45h-15v-15h15zm0-45h-15v-15h15zm0-45h-15v-15h15zm0 0"/><path d="m240.5 79.5h30v15h-30zm0 0"/></svg>