<?xml version="1.0"?>
<svg xmlns="http://www.w3.org/2000/svg" height="512px" viewBox="0 0 486.85901 486" width="512px"><path d="m445.898438 251.886719v-59.925781c0-3.605469-2.738282-6.621094-6.328126-6.964844l-41.972656-4.046875c-4.4375-17.921875-11.644531-35.039063-21.363281-50.734375l26.734375-32.28125c2.292969-2.769532 2.113281-6.824219-.410156-9.382813l-44.152344-44.71875c-2.550781-2.582031-6.652344-2.785156-9.445312-.472656l-32.332032 26.773437c-15.710937-9.667968-32.800781-16.882812-50.6875-21.398437l-4.042968-41.976563c-.347657-3.589843-3.363282-6.328124-6.96875-6.328124h-63.402344c-3.605469 0-6.621094 2.738281-6.964844 6.328124l-4.046875 41.972657c-17.921875 4.4375-35.039063 11.644531-50.734375 21.363281l-32.273438-26.734375c-2.785156-2.304687-6.863281-2.113281-9.417968.441406l-44.71875 44.722657c-2.550782 2.550781-2.742188 6.632812-.4375 9.414062l26.773437 32.328125c-9.671875 15.710937-16.886719 32.800781-21.402343 50.6875l-41.976563 4.042969c-3.589844.34375-6.328125 3.359375-6.328125 6.964844v63.402343c0 3.605469 2.738281 6.621094 6.328125 6.96875l41.972656 4.042969c4.4375 17.921875 11.644531 35.039062 21.363281 50.734375l-26.734374 32.277344c-2.304688 2.785156-2.113282 6.863281.4375 9.417969l44.722656 44.71875c2.554687 2.550781 6.632812 2.742187 9.414062.4375l32.332032-26.769532c15.707031 9.667969 32.800781 16.882813 50.683593 21.398438l4.046875 41.976562c.34375 3.585938 3.363282 6.328125 6.96875 6.328125h61.597656c25.675782 25.347657 60.3125 39.546875 96.390626 39.519531 75.730468 0 137.335937-61.464843 137.335937-137.015624.011719-36.6875-14.753906-71.835938-40.960937-97.511719zm-251.925782 140.351562c-.292968-3.03125-2.511718-5.523437-5.488281-6.167969-19.734375-4.386718-38.507813-12.308593-55.421875-23.378906-2.566406-1.65625-5.90625-1.457031-8.257812.488282l-31.320313 25.941406-35.699219-35.707032 25.929688-31.324218c1.972656-2.378906 2.148437-5.773438.433594-8.347656-11.140626-16.835938-19.046876-35.601563-23.320313-55.332032-.644531-2.976562-3.136719-5.195312-6.171875-5.488281l-40.652344-3.917969v-50.683594l40.652344-3.917968c3.035156-.292969 5.527344-2.511719 6.171875-5.488282 4.386719-19.730468 12.308594-38.507812 23.382813-55.421874 1.652343-2.5625 1.457031-5.90625-.492188-8.257813l-25.9375-31.320313 35.703125-35.699218 31.320313 25.9375c2.382812 1.96875 5.773437 2.148437 8.347656.429687 16.835937-11.140625 35.601562-19.046875 55.332031-23.320312 2.976563-.644531 5.199219-3.136719 5.488281-6.171875l3.917969-40.652344h50.683594l3.917969 40.652344c.292968 3.035156 2.511718 5.527344 5.488281 6.171875 19.734375 4.386719 38.511719 12.304687 55.421875 23.378906 2.566406 1.65625 5.910156 1.457031 8.261718-.488281l31.285157-25.910156 35.203125 35.648437-25.964844 31.351563c-1.972656 2.378906-2.148438 5.773437-.433594 8.347656 11.140625 16.835937 19.050782 35.601562 23.320313 55.332031.644531 2.976563 3.136719 5.195313 6.167969 5.488281l40.65625 3.910156v41.515626c-23.75-17.851563-52.664063-27.488282-82.375-27.453126-2.328126 0-4.640626.058594-6.9375.175782-5.871094-63.082032-59.8125-110.703125-123.132813-108.703125-63.320313 1.996093-114.15625 52.921875-116.039063 116.246093-1.882812 63.324219 45.835938 117.179688 108.929688 122.933594-.101562 2.113282-.15625 4.230469-.15625 6.367188-.027344 30.226562 10.007812 59.605468 28.527344 83.5h-42.824219zm19.726563-63.136719c-55.75-5.042968-97.941407-52.613281-96.289063-108.566406s46.578125-100.949218 102.527344-102.691406c55.953125-1.742188 103.589844 40.375 108.71875 96.117188-59.351562 9.15625-105.894531 55.773437-114.957031 115.140624zm213.824219 115.511719c-17.964844 14.699219-39.722657 24.011719-62.757813 26.859375l1.882813-1.269531c2.167968-1.464844 3.339843-4.015625 3.035156-6.617187l-2.488282-21.238282 23.976563-73.226562h5.355469c17.113281.019531 30.980468 13.886718 31 31v44.5zm-80.894532 16.3125 4.324219-36.914062 4.328125 36.972656-4.230469 2.855469zm6.734375-81.835937h-5.679687l-2.484375-7.3125 10.648437.039062zm-18.035156 91.15625 2.4375 1.601562c-24.292969-2.304687-47.351563-11.785156-66.238281-27.234375v-44.492187c.019531-17.113282 13.886718-30.980469 31-31h7.8125l24.371094 73.261718-2.484376 21.203126c-.308593 2.628906.890626 5.207031 3.101563 6.660156zm106.199219-39.015625v-31.109375c-.027344-24.839844-20.15625-44.972656-45-45h-10.429688c-3.027344 0-5.710937 1.945312-6.652344 4.824218l-16.128906 49.265626-1.96875-16.796876c1.71875-.800781 3.035156-2.269531 3.652344-4.0625l7.246094-21.238281c.726562-2.136719.382812-4.488281-.925782-6.324219-1.308593-1.835937-3.421874-2.929687-5.675781-2.9375l-30.199219-.105468h-.023437c-2.257813 0-4.375 1.085937-5.691406 2.921875-1.3125 1.832031-1.664063 4.1875-.9375 6.328125l7.246093 21.347656c.710938 2.09375 2.375 3.730469 4.480469 4.410156l-1.972656 16.824219-16.519531-49.667969c-.949219-2.863281-3.628906-4.792968-6.640625-4.792968h-12.867188c-24.839843.03125-44.972656 20.160156-45 45v31.113281c-20.191406-22.472657-31.351562-51.621094-31.332031-81.832031 0-67.832032 55.324219-123.015626 123.332031-123.015626 68.007813 0 123.335938 55.183594 123.335938 123.015626.019531 30.210937-11.144531 59.359374-31.332031 81.832031zm0 0" fill="#FFFFFF"/><path d="m349.523438 249.542969c-23.867188.027343-43.207032 19.367187-43.234376 43.234375v14.496094c-.074218 15.492187 8.148438 29.84375 21.554688 37.613281s29.949219 7.769531 43.355469 0 21.628906-22.121094 21.554687-37.613281v-14.496094c-.023437-23.867188-19.367187-43.207032-43.230468-43.234375zm29.230468 57.726562c.0625 10.484375-5.496094 20.199219-14.566406 25.460938s-20.261719 5.261719-29.332031 0c-9.070313-5.261719-14.628907-14.976563-14.566407-25.460938v-14.492187c-.0625-10.484375 5.496094-20.199219 14.566407-25.460938 9.070312-5.261718 20.261719-5.261718 29.332031 0 9.070312 5.261719 14.628906 14.976563 14.566406 25.460938zm0 0" fill="#FFFFFF"/></svg>
