<?xml version="1.0"?>
<svg xmlns="http://www.w3.org/2000/svg" viewBox="-91 0 512 512" width="512px" height="512px"><path d="m210 183.574219c0-4.480469 0-178.996094 0-183.574219h-90v183.574219c0 23.351562-9.09375 45.308593-25.605469 61.820312-22.179687 22.179688-34.394531 51.667969-34.394531 83.03125v183.574219h210v-183.574219c0-31.363281-12.214844-60.855469-34.394531-83.03125-16.511719-16.511719-25.605469-38.46875-25.605469-61.820312zm-60-153.574219h30v31h-30zm0 61h30v30h-30zm30 60v32.574219c0 18.882812 4.433594 37.082031 12.796875 53.417969l-27.796875 27.792968-27.796875-27.792968c8.363281-16.335938 12.796875-34.535157 12.796875-53.417969v-32.574219zm-90 210h90v60h-90zm150 121h-150v-31h120v-120h-120v-2.574219c0-23.351562 9.09375-45.308593 25.605469-61.820312 1.472656-1.46875 2.894531-2.976563 4.277343-4.507813l45.117188 45.117188 45.117188-45.117188c1.382812 1.535156 2.804687 3.039063 4.277343 4.507813 16.511719 16.511719 25.605469 38.46875 25.605469 61.820312zm0 0" fill="#FFFFFF"/><path d="m285 91h45v30h-45zm0 0" fill="#FFFFFF"/><path d="m274.394531 5.390625 21.210938 21.210937-30 30-21.210938-21.210937zm0 0" fill="#FFFFFF"/><path d="m274.394531 206.609375-30-30 21.210938-21.210937 30 30zm0 0" fill="#FFFFFF"/><path d="m0 91h45v30h-45zm0 0" fill="#FFFFFF"/><path d="m55.605469 5.394531 30 29.996094-21.214844 21.214844-29.996094-30zm0 0" fill="#FFFFFF"/><path d="m34.390625 185.394531 30-30 21.214844 21.210938-30 30zm0 0" fill="#FFFFFF"/></svg>
