<?xml version="1.0" encoding="UTF-8" standalone="no"?>
<!-- Generator: Adobe Illustrator 16.0.0, SVG Export Plug-In . SVG Version: 6.00 Build 0)  -->

<svg
   xmlns:dc="http://purl.org/dc/elements/1.1/"
   xmlns:cc="http://creativecommons.org/ns#"
   xmlns:rdf="http://www.w3.org/1999/02/22-rdf-syntax-ns#"
   xmlns:svg="http://www.w3.org/2000/svg"
   xmlns="http://www.w3.org/2000/svg"
   xmlns:sodipodi="http://sodipodi.sourceforge.net/DTD/sodipodi-0.dtd"
   xmlns:inkscape="http://www.inkscape.org/namespaces/inkscape"
   version="1.1"
   id="Capa_1"
   x="0px"
   y="0px"
   width="611.997px"
   height="611.998px"
   viewBox="0 0 611.997 611.998"
   style="enable-background:new 0 0 611.997 611.998;"
   xml:space="preserve"
   sodipodi:docname="contorno-de-casa.svg"
   inkscape:version="0.92.4 (5da689c313, 2019-01-14)"><metadata
   id="metadata134"><rdf:RDF><cc:Work
       rdf:about=""><dc:format>image/svg+xml</dc:format><dc:type
         rdf:resource="http://purl.org/dc/dcmitype/StillImage" /><dc:title></dc:title></cc:Work></rdf:RDF></metadata><defs
   id="defs132" /><sodipodi:namedview
   pagecolor="#ffffff"
   bordercolor="#666666"
   borderopacity="1"
   objecttolerance="10"
   gridtolerance="10"
   guidetolerance="10"
   inkscape:pageopacity="0"
   inkscape:pageshadow="2"
   inkscape:window-width="640"
   inkscape:window-height="480"
   id="namedview130"
   showgrid="false"
   inkscape:zoom="0.38562218"
   inkscape:cx="305.9985"
   inkscape:cy="305.99899"
   inkscape:window-x="0"
   inkscape:window-y="0"
   inkscape:window-maximized="0"
   inkscape:current-layer="Capa_1" />
<g
   id="g97"
   style="fill:#ffffff">
	<g
   id="g95"
   style="fill:#ffffff">
		<path
   d="M511.114,300.251c-9.94,0-17.638,7.663-17.638,17.651v241.105H368.401v-98.453c0-9.236-7.697-17.31-17.002-17.31h-90.435    c-9.948,0-17.96,8.073-17.96,17.31v98.453h-124.76v-233.1c0-9.306-7.69-17.036-17.638-17.036c-9.298,0-16.995,7.73-16.995,17.036    v250.752c0,9.305,7.697,17.036,16.995,17.036h160.358c9.298,0,16.995-7.731,16.995-17.036v-98.454h55.801v98.454    c0,9.305,7.697,17.036,17.639,17.036h159.715c9.299,0,16.995-7.731,16.995-17.036V317.903    C528.109,307.915,520.413,300.251,511.114,300.251z"
   id="path91"
   style="fill:#ffffff" />
		<path
   d="M607.003,314.003L467.819,174.225V78.919c0-9.921-8.019-17.583-17.96-17.583c-9.305,0-17.001,7.663-17.001,17.583v60.345    L318.046,23.774c-3.518-3.558-7.697-5.474-11.864-5.474c-4.81,0-8.983,1.984-12.507,5.474L5.361,312.087    c-6.917,6.91-7.375,17.994,0,24.357c6.411,7.389,17.454,6.91,24.371,0l276.45-275.793l275.807,278.393    c2.873,2.874,7.054,4.516,12.507,4.516c4.81,0,8.976-1.642,12.507-4.516C613.42,332.613,613.899,320.982,607.003,314.003z"
   id="path93"
   style="fill:#ffffff" />
	</g>
</g>
<g
   id="g99">
</g>
<g
   id="g101">
</g>
<g
   id="g103">
</g>
<g
   id="g105">
</g>
<g
   id="g107">
</g>
<g
   id="g109">
</g>
<g
   id="g111">
</g>
<g
   id="g113">
</g>
<g
   id="g115">
</g>
<g
   id="g117">
</g>
<g
   id="g119">
</g>
<g
   id="g121">
</g>
<g
   id="g123">
</g>
<g
   id="g125">
</g>
<g
   id="g127">
</g>
</svg>