<?xml version="1.0" encoding="iso-8859-1"?>
<!-- Generator: Adobe Illustrator 19.0.0, SVG Export Plug-In . SVG Version: 6.00 Build 0)  -->
<svg xmlns="http://www.w3.org/2000/svg" xmlns:xlink="http://www.w3.org/1999/xlink" version="1.1" id="Capa_1" x="0px" y="0px" viewBox="0 0 480 480" style="enable-background:new 0 0 480 480;" xml:space="preserve" width="512px" height="512px">
<g>
	<g>
		<path d="M384.72,216H384v-48.72c23.066-3.919,39.957-23.883,40-47.28c0.02-26.51-21.455-48.016-47.964-48.036    c-17.642-0.013-33.869,9.653-42.26,25.172v0.048c-3.764,7.018-5.748,14.852-5.776,22.816c0.043,23.397,16.934,43.361,40,47.28    v17.424c-19.509,3.296-34.997,18.225-39.008,37.6c-0.677,3.187-1.01,6.438-0.992,9.696v53.6    c-10.797-15.441-26.256-27.018-44.112-33.032l26.768-40.16c2.452-3.675,1.461-8.643-2.214-11.095    c-1.297-0.865-2.819-1.333-4.378-1.345l-28.8-0.232c3.079-7.537,4.687-15.594,4.736-23.736v-40h8    c13.157,0.097,23.902-10.491,23.998-23.648c0.021-2.848-0.469-5.677-1.446-8.352H328V88h-49.32L263.872,6.568    C263.18,2.764,259.866-0.001,256,0h-40c-2.122,0-4.156,0.844-5.656,2.344L200,12.688L189.656,2.344C188.156,0.844,186.122,0,184,0    h-40c-3.866-0.001-7.18,2.764-7.872,6.568L121.32,88H64v16h25.472c-0.948,2.562-1.445,5.268-1.472,8    c0.074,13.224,10.776,23.926,24,24h8v40c0.044,8.153,1.652,16.221,4.736,23.768L95.936,200c-4.418,0.035-7.972,3.644-7.937,8.062    c0.012,1.559,0.48,3.081,1.345,4.378l24.632,36.952C80.303,256.12,56.047,285.661,56,320v152c0,4.418,3.582,8,8,8h272    c30.913-0.035,55.965-25.087,56-56V278.984c14.31-3.834,24.194-16.89,24-31.704C415.982,230.012,401.988,216.018,384.72,216z     M280,104h8c2.155-0.003,4.215,0.882,5.696,2.448c1.493,1.459,2.325,3.465,2.304,5.552c0,4.418-3.582,8-8,8h-8V104z M120,120h-8    c-2.156,0.007-4.218-0.879-5.696-2.448c-1.493-1.459-2.325-3.465-2.304-5.552c0-4.418,3.582-8,8-8h8V120z M289.136,215.864    L267.2,248.8c-3.713-0.501-7.454-0.768-11.2-0.8v16c3.328,0.025,6.651,0.279,9.944,0.76l13.408,53.64L240,374.616V235.304    c10.293-4.149,19.324-10.913,26.2-19.624L289.136,215.864z M150.696,16h30.008l13.656,13.656c3.124,3.123,8.188,3.123,11.312,0    L219.312,16h30.008l7.272,40H143.408L150.696,16z M140.512,72h118.992l2.912,16H137.6L140.512,72z M240,104v8c0,4.418-3.582,8-8,8    h-8c-4.418,0-8-3.582-8-8v-8H240z M184,104v8c0,4.418-3.582,8-8,8h-8c-4.418,0-8-3.582-8-8v-8H184z M160,464h-56V328H88v136H72    V320c0.043-26.856,19.122-49.911,45.496-54.976L104.24,318.08c-0.559,2.246-0.119,4.624,1.208,6.52L160,402.52V464z M160,374.624    L120.648,318.4l13.6-54.4H144v-16h-11.72l-21.416-32.12l22.936-0.2c6.873,8.716,15.905,15.484,26.2,19.632V374.624z M176,300.688    v-23.624l12.4,11.224L176,300.688z M200,299.312L220.688,320l-18.344,18.344c-1.487,1.486-2.329,3.498-2.344,5.6    c-0.015-2.102-0.857-4.114-2.344-5.6L179.312,320L200,299.312z M183.36,346.672L176,385.92v-46.608L183.36,346.672z M177.68,464    l22.184-118.52c0.088-0.475,0.134-0.957,0.136-1.44c0.002,0.483,0.048,0.965,0.136,1.44L222.4,464H177.68z M224,385.92    l-7.36-39.248l7.36-7.36V385.92z M224,300.688L211.312,288L224,275.312V300.688z M224,252.688l-24.272,24.272L176,255.496v-16.048    c2.653,0.35,5.324,0.535,8,0.552h32c2.676-0.017,5.347-0.201,8-0.552V252.688z M216,224h-32c-4.485,0.022-8.95-0.603-13.256-1.856    C150.168,216.232,135.995,197.408,136,176v-72h8v8c0,13.255,10.745,24,24,24h8c13.255,0,24-10.745,24-24c0,13.255,10.745,24,24,24    h8c13.255,0,24-10.745,24-24v-8h8v72c0.004,21.442-14.213,40.286-34.832,46.168C224.889,223.408,220.455,224.025,216,224z     M328,464h-16V328h-16v136h-56v-61.48l54.552-77.936c1.329-1.898,1.77-4.28,1.208-6.528l-12.144-48.52    C310.411,280.773,327.888,306.945,328,336V464z M344,120c0-17.673,14.327-32,32-32c17.673,0,32,14.327,32,32s-14.327,32-32,32    C358.358,151.925,344.075,137.642,344,120z M368,201.048V216h-19.728C352.591,208.585,359.693,203.202,368,201.048z M376,424    c-0.028,18.998-13.392,35.365-32,39.192V328h16v-16h-16v-16h32V424z M400,248c0,8.837-7.163,16-16,16c-4.418,0-8,3.582-8,8v8h-32    v-48h24v8h16v-8h0.72c8.54,0.096,15.385,7.098,15.288,15.638C400.007,247.758,400.004,247.879,400,248z" fill="#FFFFFF"/>
	</g>
</g>
<g>
	<g>
		<path d="M218.368,186.024c-4.868,4.896-11.495,7.639-18.4,7.616c-6.858,0.014-13.434-2.724-18.256-7.6l-11.344,11.28    c7.817,7.907,18.481,12.346,29.6,12.32l0.032,0c11.139,0.026,21.826-4.404,29.68-12.304L218.368,186.024z" fill="#FFFFFF"/>
	</g>
</g>
<g>
</g>
<g>
</g>
<g>
</g>
<g>
</g>
<g>
</g>
<g>
</g>
<g>
</g>
<g>
</g>
<g>
</g>
<g>
</g>
<g>
</g>
<g>
</g>
<g>
</g>
<g>
</g>
<g>
</g>
</svg>
