<?xml version="1.0" encoding="UTF-8" standalone="no"?>
<!-- Generator: Adobe Illustrator 19.0.0, SVG Export Plug-In . SVG Version: 6.00 Build 0)  -->

<svg
   xmlns:dc="http://purl.org/dc/elements/1.1/"
   xmlns:cc="http://creativecommons.org/ns#"
   xmlns:rdf="http://www.w3.org/1999/02/22-rdf-syntax-ns#"
   xmlns:svg="http://www.w3.org/2000/svg"
   xmlns="http://www.w3.org/2000/svg"
   xmlns:sodipodi="http://sodipodi.sourceforge.net/DTD/sodipodi-0.dtd"
   xmlns:inkscape="http://www.inkscape.org/namespaces/inkscape"
   version="1.1"
   id="Capa_1"
   x="0px"
   y="0px"
   viewBox="0 0 496 496"
   style="enable-background:new 0 0 496 496;"
   xml:space="preserve"
   sodipodi:docname="diagnostico.svg"
   inkscape:version="0.92.4 (5da689c313, 2019-01-14)"><metadata
   id="metadata57"><rdf:RDF><cc:Work
       rdf:about=""><dc:format>image/svg+xml</dc:format><dc:type
         rdf:resource="http://purl.org/dc/dcmitype/StillImage" /><dc:title></dc:title></cc:Work></rdf:RDF></metadata><defs
   id="defs55" /><sodipodi:namedview
   pagecolor="#ffffff"
   bordercolor="#666666"
   borderopacity="1"
   objecttolerance="10"
   gridtolerance="10"
   guidetolerance="10"
   inkscape:pageopacity="0"
   inkscape:pageshadow="2"
   inkscape:window-width="1920"
   inkscape:window-height="1017"
   id="namedview53"
   showgrid="false"
   inkscape:zoom="0.47580645"
   inkscape:cx="248"
   inkscape:cy="248"
   inkscape:window-x="-8"
   inkscape:window-y="-8"
   inkscape:window-maximized="1"
   inkscape:current-layer="Capa_1" />
<path
   style="fill:#fd9975;fill-opacity:1"
   d="M256,288H64V176h192V288z"
   id="path2" />
<path
   d="M464,304c0-17.648-14.352-32-32-32h-56c-8.824,0-16-7.176-16-16h-16c0,17.648,14.352,32,32,32h56c8.824,0,16,7.176,16,16  H320V64h-80h-8h-16v-8c0-30.88-25.12-56-56-56s-56,25.12-56,56v8H88h-8H0v432h320V368h144c17.648,0,32-14.352,32-32  S481.648,304,464,304z M242.216,352l-26.664-16l26.664-16H392v32H242.216z M408,320h16v32h-16V320z M304,80v224h-16V96h-48V80H304z   M120,56c0-22.056,17.944-40,40-40s40,17.944,40,40v8h-80V56z M96,128V80h128v48h-16v16h32v-32h32v192h-34.216l-53.336,32l53.336,32  H272v80H48V112h32v32h112v-16H96z M304,480H16V80h64v16H32v368h256v-96h16V480z M464,352h-24v-32h24c8.824,0,16,7.176,16,16  S472.824,352,464,352z"
   id="path4"
   style="fill:#fd9975;fill-opacity:1" />
<polygon
   points="151.616,234.152 127.616,202.152 112,225.576 100.28,208 64,208 64,224 91.72,224 112,254.424 128.384,229.848   152.384,261.84 172.28,232 256,232 256,216 163.72,216 "
   id="polygon6"
   style="fill:#fcffff;fill-opacity:1" />
<rect
   x="80"
   y="304"
   width="96"
   height="16"
   id="rect8"
   style="fill:#fd9975;fill-opacity:1" />
<rect
   x="80"
   y="368"
   width="96"
   height="16"
   id="rect10"
   style="fill:#fd9975;fill-opacity:1" />
<rect
   x="80"
   y="336"
   width="40"
   height="16"
   id="rect12"
   style="fill:#fd9975;fill-opacity:1" />
<rect
   x="136"
   y="336"
   width="40"
   height="16"
   id="rect14"
   style="fill:#fd9975;fill-opacity:1" />
<rect
   x="80"
   y="400"
   width="16"
   height="16"
   id="rect16"
   style="fill:#fd9975;fill-opacity:1" />
<rect
   x="120"
   y="400"
   width="16"
   height="16"
   id="rect18"
   style="fill:#fd9975;fill-opacity:1" />
<rect
   x="160"
   y="400"
   width="16"
   height="16"
   id="rect20"
   style="fill:#fd9975;fill-opacity:1" />
<g
   id="g22">
</g>
<g
   id="g24">
</g>
<g
   id="g26">
</g>
<g
   id="g28">
</g>
<g
   id="g30">
</g>
<g
   id="g32">
</g>
<g
   id="g34">
</g>
<g
   id="g36">
</g>
<g
   id="g38">
</g>
<g
   id="g40">
</g>
<g
   id="g42">
</g>
<g
   id="g44">
</g>
<g
   id="g46">
</g>
<g
   id="g48">
</g>
<g
   id="g50">
</g>
</svg>