<?xml version="1.0" encoding="UTF-8" standalone="no"?>
<!-- Generator: Adobe Illustrator 19.0.0, SVG Export Plug-In . SVG Version: 6.00 Build 0)  -->

<svg
   xmlns:dc="http://purl.org/dc/elements/1.1/"
   xmlns:cc="http://creativecommons.org/ns#"
   xmlns:rdf="http://www.w3.org/1999/02/22-rdf-syntax-ns#"
   xmlns:svg="http://www.w3.org/2000/svg"
   xmlns="http://www.w3.org/2000/svg"
   xmlns:sodipodi="http://sodipodi.sourceforge.net/DTD/sodipodi-0.dtd"
   xmlns:inkscape="http://www.inkscape.org/namespaces/inkscape"
   version="1.1"
   id="Capa_1"
   x="0px"
   y="0px"
   viewBox="0 0 470 470"
   style="enable-background:new 0 0 470 470;"
   xml:space="preserve"
   sodipodi:docname="expedientepredio.svg"
   inkscape:version="0.92.4 (5da689c313, 2019-01-14)"><metadata
   id="metadata55"><rdf:RDF><cc:Work
       rdf:about=""><dc:format>image/svg+xml</dc:format><dc:type
         rdf:resource="http://purl.org/dc/dcmitype/StillImage" /><dc:title></dc:title></cc:Work></rdf:RDF></metadata><defs
   id="defs53" /><sodipodi:namedview
   pagecolor="#ffffff"
   bordercolor="#666666"
   borderopacity="1"
   objecttolerance="10"
   gridtolerance="10"
   guidetolerance="10"
   inkscape:pageopacity="0"
   inkscape:pageshadow="2"
   inkscape:window-width="1920"
   inkscape:window-height="1017"
   id="namedview51"
   showgrid="false"
   inkscape:zoom="0.50212766"
   inkscape:cx="235"
   inkscape:cy="235"
   inkscape:window-x="-8"
   inkscape:window-y="-8"
   inkscape:window-maximized="1"
   inkscape:current-layer="Capa_1" />
<g
   id="g18"
   style="fill:#fd9975;fill-opacity:1">
	<path
   d="M360.828,384.339c1.705-1.374,2.798-3.478,2.798-5.839c0-0.066,0-341,0-341c0-4.143-3.357-7.5-7.5-7.5H139.141   C133.79,12.647,117.605,0,98.52,0C79.742,0,63.311,12.514,57.906,30H33.874c-4.143,0-7.5,3.357-7.5,7.5v425   c0,4.143,3.357,7.5,7.5,7.5h238.187c2.425,0,4.527-1.092,5.902-2.794L360.828,384.339z M279.626,444.328V386h58.327   L279.626,444.328z M98.52,15c10.663,0,19.922,6.105,24.482,15H74.036C78.64,21.052,88.011,15,98.52,15z M41.374,45h84.646v52.5   c0,6.893-5.607,12.5-12.5,12.5s-12.5-5.607-12.5-12.5v-30c0-4.143-3.357-7.5-7.5-7.5s-7.5,3.357-7.5,7.5v30   c0,15.163,12.337,27.5,27.5,27.5s27.5-12.337,27.5-27.5V45h207.606v326h-76.5c-4.143,0-7.5,3.357-7.5,7.5V455H41.374V45z"
   id="path2"
   style="fill:#fd9975;fill-opacity:1" />
	<path
   d="M296.126,345.5c4.143,0,7.5-3.357,7.5-7.5s-3.357-7.5-7.5-7.5H93.874c-4.143,0-7.5,3.357-7.5,7.5s3.357,7.5,7.5,7.5   H296.126z"
   id="path4"
   style="fill:#fd9975;fill-opacity:1" />
	<path
   d="M93.874,300.5h202.252c4.143,0,7.5-3.357,7.5-7.5s-3.357-7.5-7.5-7.5H93.874c-4.143,0-7.5,3.357-7.5,7.5   S89.731,300.5,93.874,300.5z"
   id="path6"
   style="fill:#fd9975;fill-opacity:1" />
	<path
   d="M93.874,255.5h202.252c4.143,0,7.5-3.357,7.5-7.5s-3.357-7.5-7.5-7.5H93.874c-4.143,0-7.5,3.357-7.5,7.5   S89.731,255.5,93.874,255.5z"
   id="path8"
   style="fill:#fd9975;fill-opacity:1" />
	<path
   d="M93.874,210.5h202.252c4.143,0,7.5-3.357,7.5-7.5s-3.357-7.5-7.5-7.5H93.874c-4.143,0-7.5,3.357-7.5,7.5   S89.731,210.5,93.874,210.5z"
   id="path10"
   style="fill:#fd9975;fill-opacity:1" />
	<path
   d="M93.874,165.5h202.252c4.143,0,7.5-3.357,7.5-7.5s-3.357-7.5-7.5-7.5H93.874c-4.143,0-7.5,3.357-7.5,7.5   S89.731,165.5,93.874,165.5z"
   id="path12"
   style="fill:#fd9975;fill-opacity:1" />
	<path
   d="M396.126,30h-10c-4.143,0-7.5,3.357-7.5,7.5s3.357,7.5,7.5,7.5h2.5v410h-80.072c-4.143,0-7.5,3.357-7.5,7.5   s3.357,7.5,7.5,7.5h87.572c4.143,0,7.5-3.357,7.5-7.5v-425C403.626,33.357,400.269,30,396.126,30z"
   id="path14"
   style="fill:#fd9975;fill-opacity:1" />
	<path
   d="M436.126,30h-10c-4.143,0-7.5,3.357-7.5,7.5s3.357,7.5,7.5,7.5h2.5v410h-2.5c-4.143,0-7.5,3.357-7.5,7.5s3.357,7.5,7.5,7.5   h10c4.143,0,7.5-3.357,7.5-7.5v-425C443.626,33.357,440.269,30,436.126,30z"
   id="path16"
   style="fill:#fd9975;fill-opacity:1" />
</g>
<g
   id="g20">
</g>
<g
   id="g22">
</g>
<g
   id="g24">
</g>
<g
   id="g26">
</g>
<g
   id="g28">
</g>
<g
   id="g30">
</g>
<g
   id="g32">
</g>
<g
   id="g34">
</g>
<g
   id="g36">
</g>
<g
   id="g38">
</g>
<g
   id="g40">
</g>
<g
   id="g42">
</g>
<g
   id="g44">
</g>
<g
   id="g46">
</g>
<g
   id="g48">
</g>
</svg>