<svg height="512pt" viewBox="0 0 512 512.001" width="512pt" xmlns="http://www.w3.org/2000/svg"><path d="m255.75 0c-52.027344 0-102.101562 15.53125-144.804688 44.914062l8.511719 12.371094c40.1875-27.652344 87.316407-42.269531 136.292969-42.269531 79.386719 0 153.640625 39.128906 198.625 104.671875l12.378906-8.496094c-47.785156-69.625-126.667968-111.191406-211.003906-111.191406zm0 0"/><path d="m98.472656 54.0625c-29.980468 23.414062-54.777344 53.726562-71.707031 87.660156-17.761719 35.597656-26.765625 73.964844-26.765625 114.027344v164.769531h15.015625v-164.769531c0-74.648438 33.785156-143.847656 92.699219-189.851562zm0 0"/><path d="m0 435.535156h15.015625v76.464844h-15.015625zm0 0"/><path d="m475.121094 124.210938-12.867188 7.734374c22.394532 37.269532 34.230469 80.082032 34.230469 123.804688v256.25h15.015625v-256.25c0-46.449219-12.578125-91.933594-36.378906-131.539062zm0 0"/><path d="m398.390625 389.878906v-190.898437h-15.015625v190.898437c0 12.421875-10.101562 22.523438-22.523438 22.523438h-210.203124c-12.421876 0-22.523438-10.101563-22.523438-22.523438v-72.925781h-15.015625v72.925781c0 18.402344 13.3125 33.742188 30.808594 36.921875l-43.605469 77.515625 13.085938 7.359375 47.402343-84.257812h23.441407l-40.171876 77.109375 13.316407 6.9375 17.710937-34h40.613282v-15.011719h-32.789063l18.25-35.035156h109.171875l18.246094 35.035156h-97.863282v15.011719h105.679688l17.707031 34 13.316407-6.9375-40.160157-77.109375h23.445313l47.386718 84.257812 13.085938-7.359375-43.59375-77.519531c17.488281-3.183594 30.796875-18.519531 30.796875-36.917969zm0 0"/><path d="m113.109375 129.625v172.3125h15.015625v-172.3125c0-18.886719 10.023438-35.476562 25.023438-44.738281v134.828125c0 26.214844 21.332031 47.546875 47.546874 47.546875h7.867188v-15.015625h-7.867188c-17.9375 0-32.53125-14.59375-32.53125-32.53125v-141.121094c4.011719-.984375 8.203126-1.519531 12.511719-1.519531h93.664063v-15.011719h-93.664063c-37.253906 0-67.566406 30.308594-67.566406 67.5625zm0 0"/><path d="m310.804688 252.246094h-87.230469v15.015625h87.230469c26.214843 0 47.546874-21.332031 47.546874-47.546875v-134.828125c15 9.261719 25.023438 25.851562 25.023438 44.738281v54.339844h15.015625v-54.339844c0-37.253906-30.3125-67.5625-67.566406-67.5625h-41.46875v15.011719h41.46875c4.3125 0 8.5.535156 12.511719 1.519531v141.121094c0 17.9375-14.59375 32.53125-32.53125 32.53125zm0 0"/><path d="m181.679688 325.316406c-17.9375 0-32.535157 14.59375-32.535157 32.53125 0 17.941406 14.597657 32.535156 32.535157 32.535156s32.53125-14.59375 32.53125-32.535156c0-17.9375-14.59375-32.53125-32.53125-32.53125zm0 50.050782c-9.660157 0-17.519532-7.859376-17.519532-17.519532 0-9.65625 7.859375-17.515625 17.519532-17.515625 9.65625 0 17.515624 7.859375 17.515624 17.515625 0 9.660156-7.859374 17.519532-17.515624 17.519532zm0 0"/><path d="m329.824219 325.316406c-17.9375 0-32.535157 14.59375-32.535157 32.53125 0 17.941406 14.597657 32.535156 32.535157 32.535156s32.53125-14.59375 32.53125-32.535156c0-17.9375-14.59375-32.53125-32.53125-32.53125zm0 50.050782c-9.660157 0-17.519531-7.859376-17.519531-17.519532 0-9.65625 7.859374-17.515625 17.519531-17.515625 9.65625 0 17.515625 7.859375 17.515625 17.515625 0 9.660156-7.859375 17.519532-17.515625 17.519532zm0 0"/><path d="m174.171875 292.285156h15.011719v15.015625h-15.011719zm0 0"/><path d="m322.316406 292.285156h15.011719v15.015625h-15.011719zm0 0"/><path d="m216.886719 197.953125-12.363281-8.527344 8.527343-12.359375 12.359375 8.523438zm17.050781-24.722656-12.363281-8.523438 22.992187-33.335937 12.359375 8.523437zm0 0"/><path d="m266.933594 197.953125-12.359375-8.527344 8.523437-12.359375 12.363282 8.523438zm17.050781-24.722656-12.359375-8.523438 22.988281-33.335937 12.363281 8.523437zm0 0"/></svg>