<?xml version="1.0" encoding="UTF-8" standalone="no"?>
<svg
   xmlns:dc="http://purl.org/dc/elements/1.1/"
   xmlns:cc="http://creativecommons.org/ns#"
   xmlns:rdf="http://www.w3.org/1999/02/22-rdf-syntax-ns#"
   xmlns:svg="http://www.w3.org/2000/svg"
   xmlns="http://www.w3.org/2000/svg"
   xmlns:sodipodi="http://sodipodi.sourceforge.net/DTD/sodipodi-0.dtd"
   xmlns:inkscape="http://www.inkscape.org/namespaces/inkscape"
   id="Outline"
   height="512"
   viewBox="0 0 64 64"
   width="512"
   version="1.1"
   sodipodi:docname="grualistm.svg"
   inkscape:version="0.92.4 (5da689c313, 2019-01-14)">
  <metadata
     id="metadata335">
    <rdf:RDF>
      <cc:Work
         rdf:about="">
        <dc:format>image/svg+xml</dc:format>
        <dc:type
           rdf:resource="http://purl.org/dc/dcmitype/StillImage" />
        <dc:title></dc:title>
      </cc:Work>
    </rdf:RDF>
  </metadata>
  <defs
     id="defs333" />
  <sodipodi:namedview
     pagecolor="#ffffff"
     bordercolor="#666666"
     borderopacity="1"
     objecttolerance="10"
     gridtolerance="10"
     guidetolerance="10"
     inkscape:pageopacity="0"
     inkscape:pageshadow="2"
     inkscape:window-width="640"
     inkscape:window-height="480"
     id="namedview331"
     showgrid="false"
     inkscape:zoom="0.4609375"
     inkscape:cx="256"
     inkscape:cy="256"
     inkscape:window-x="0"
     inkscape:window-y="0"
     inkscape:window-maximized="0"
     inkscape:current-layer="Outline" />
  <path
     d="m61.75 14.34a1 1 0 0 0 -.75-.34h-37v-1a3 3 0 0 0 -3-3h-2v-5a3 3 0 0 0 -6 0v2a1 1 0 0 0 2 0v-2a1 1 0 0 1 2 0v5h-6a3 3 0 0 0 -3 3v1h-5a1 1 0 0 0 -.75.34 1 1 0 0 0 -.24.78l1 8a1 1 0 0 0 .99.88h18v2h-13a1 1 0 0 0 0 2h2v24a5 5 0 0 0 0 10h13a1 1 0 0 0 0-2h-13a3 3 0 0 1 0-6h24a3 3 0 0 1 0 6h-7a1 1 0 0 0 0 2h7a5 5 0 0 0 0-10h-14v-14h2v7a3 3 0 0 0 3 3h3v1a1 1 0 0 0 2 0v-8a5 5 0 0 0 -5-5h-5v-8h2a1 1 0 0 0 1-1v-3h24v2a3 3 0 0 0 -3 3v4a3 3 0 0 0 3 3h3v2a1 1 0 0 0 1 1 2 2 0 1 1 -2 2 1 1 0 0 0 -2 0 4 4 0 1 0 5-3.86v-1.14h3a3 3 0 0 0 3-3v-4a3 3 0 0 0 -3-3v-2h4a1 1 0 0 0 1-.88l1-8a1 1 0 0 0 -.25-.78zm-35.75 23.66a3 3 0 0 1 3 3v5h-3a1 1 0 0 1 -1-1v-7zm-13-.38 4.76 2.38-4.76 2.38zm0 8 4.76 2.38-4.76 2.38zm1.24-1.62 4.76-2.38v4.76zm4.76-5.62-4.76-2.38 4.76-2.38zm-6-4v-4.76l4.76 2.38zm1.24 17.62 4.76-2.38v2.38zm4.76-21.62-4.76-2.38h4.76zm40.42-10.78-1.8-3.6h2.25zm-5-3.6-2.42 4.76-2.38-4.76zm-8 0-2.42 4.76-2.38-4.76zm-8 0-2.42 4.76-2.38-4.76zm-8 0-2.42 4.76-2.38-4.76zm-20.42-3a1 1 0 0 1 1-1h10a1 1 0 0 1 1 1v1h-12zm12.38 3-2.38 4.76-2.38-4.76zm-8 0-2.38 4.76-2.38-4.76zm-8 0-1.8 3.6-.45-3.6zm-.76 6 2.38-4.76 2.38 4.76zm8 0 2.38-4.76 2.38 4.76zm8 0 2.38-4.76 2.38 4.76zm8 0 2.38-4.76 2.38 4.76zm8 0 2.38-4.76 2.38 4.76zm10.38-4.76 2.38 4.76h-4.76zm9 11.76v4a1 1 0 0 1 -1 1h-8a1 1 0 0 1 -1-1v-4a1 1 0 0 1 1-1h8a1 1 0 0 1 1 1zm-3-3h-4v-2h4zm-.38-4 2.38-4.76 2.38 4.76z"
     id="path318"
     style="fill:#ffffff" />
  <path
     d="m32 57a1 1 0 0 0 -1-1h-16a1 1 0 0 0 0 2h16a1 1 0 0 0 1-1z"
     id="path320"
     style="fill:#ffffff" />
  <circle
     cx="35"
     cy="57"
     r="1"
     id="circle322"
     style="fill:#ffffff" />
  <circle
     cx="11"
     cy="57"
     r="1"
     id="circle324"
     style="fill:#ffffff" />
  <circle
     cx="50"
     cy="31"
     r="1"
     id="circle326"
     style="fill:#ffffff" />
  <circle
     cx="54"
     cy="31"
     r="1"
     id="circle328"
     style="fill:#ffffff" />
</svg>
