<?xml version="1.0" encoding="iso-8859-1"?>
<!-- Generator: Adobe Illustrator 16.0.0, SVG Export Plug-In . SVG Version: 6.00 Build 0)  -->
<!DOCTYPE svg PUBLIC "-//W3C//DTD SVG 1.1//EN" "http://www.w3.org/Graphics/SVG/1.1/DTD/svg11.dtd">
<svg xmlns="http://www.w3.org/2000/svg" xmlns:xlink="http://www.w3.org/1999/xlink" version="1.1" id="Capa_1" x="0px" y="0px" width="512px" height="512px" viewBox="0 0 79.534 79.534" style="enable-background:new 0 0 79.534 79.534;" xml:space="preserve">
<g>
	<path d="M42.187,63.338l-8.399,3.779c-0.373,0.176-0.764,0.249-1.152,0.249c-0.386,0-0.746-0.166-1.09-0.312   l-0.075,0.053l-0.106-0.109c-0.546-0.279-6.517-6.711-6.517-6.711l-0.404,13.251H7.26L6.861,60.293L5.577,73.539H0   c0.699-7.643,1.745-17.937,2.359-19.211c2.012-4.085,5.103-6.565,12.705-6.565h0.784h0.774c7.614,0,9.069,2.236,12.712,6.565   c2.692,3.2,2.75,3.78,4.645,6.566l5.901-2.662c1.4-0.642,3.078-0.01,3.72,1.409C44.227,61.049,43.6,62.706,42.187,63.338z    M77.258,24.707c-1.522-0.313-2.987,0.707-3.277,2.229l-3.796,19.698c0,0-0.398,2.361-2.62,1.75   c-1.507-0.425-3.309-0.621-5.499-0.621h-0.767h-0.776c-2.19,0-3.998,0.196-5.5,0.621c-2.221,0.611-2.63-1.75-2.63-1.75   l-3.785-19.698c-0.295-1.522-1.756-2.542-3.283-2.229c-1.517,0.303-2.511,1.761-2.222,3.283c0,0,4.365,23.123,4.972,25.873   c0.61,2.744,4.226,3.47,4.226,3.47l0.414,16.207h8.585h8.585l0.399-16.207c0,0,3.619-0.73,4.225-3.47   c0.611-2.75,4.977-25.873,4.977-25.873C79.774,26.467,78.78,25.009,77.258,24.707z M15.848,45.846c4.502,0,8.146-3.635,8.146-8.138   c0-4.502-3.643-8.155-8.146-8.155c-4.505,0-8.158,3.648-8.158,8.15C7.689,42.206,11.348,45.846,15.848,45.846z M61.31,45.846   c4.484,0,8.14-3.635,8.14-8.138c0-4.502-3.655-8.15-8.14-8.15c-4.516,0-8.172,3.648-8.172,8.15   C53.138,42.211,56.799,45.846,61.31,45.846z M5.484,21.76l5.546,2.252l1.563-8.398l3.511,5.388l5.263-7.073l-0.184,8.399   l6.669-2.763l-2.576,7.63l8.202-0.456l-4.539,7.332l9.82-10.625l-11.05,2.073l5.525-10.998l-9.421,4.481l0.354-13.007L15.897,17.82   l-4.593-8.086L9.862,21.292l-8.355-3.345L6.152,28.88L5.484,21.76z" fill="#FFFFFF"/>
</g>
<g>
</g>
<g>
</g>
<g>
</g>
<g>
</g>
<g>
</g>
<g>
</g>
<g>
</g>
<g>
</g>
<g>
</g>
<g>
</g>
<g>
</g>
<g>
</g>
<g>
</g>
<g>
</g>
<g>
</g>
</svg>
