<?xml version="1.0" encoding="UTF-8" standalone="no"?>
<svg
   xmlns:dc="http://purl.org/dc/elements/1.1/"
   xmlns:cc="http://creativecommons.org/ns#"
   xmlns:rdf="http://www.w3.org/1999/02/22-rdf-syntax-ns#"
   xmlns:svg="http://www.w3.org/2000/svg"
   xmlns="http://www.w3.org/2000/svg"
   xmlns:sodipodi="http://sodipodi.sourceforge.net/DTD/sodipodi-0.dtd"
   xmlns:inkscape="http://www.inkscape.org/namespaces/inkscape"
   height="512pt"
   viewBox="0 -98 512 512"
   width="512pt"
   version="1.1"
   id="svg14"
   sodipodi:docname="m_cuadro.svg"
   inkscape:version="0.92.4 (5da689c313, 2019-01-14)">
  <metadata
     id="metadata20">
    <rdf:RDF>
      <cc:Work
         rdf:about="">
        <dc:format>image/svg+xml</dc:format>
        <dc:type
           rdf:resource="http://purl.org/dc/dcmitype/StillImage" />
        <dc:title></dc:title>
      </cc:Work>
    </rdf:RDF>
  </metadata>
  <defs
     id="defs18" />
  <sodipodi:namedview
     pagecolor="#ffffff"
     bordercolor="#666666"
     borderopacity="1"
     objecttolerance="10"
     gridtolerance="10"
     guidetolerance="10"
     inkscape:pageopacity="0"
     inkscape:pageshadow="2"
     inkscape:window-width="1920"
     inkscape:window-height="1017"
     id="namedview16"
     showgrid="false"
     inkscape:zoom="0.34570313"
     inkscape:cx="341.33333"
     inkscape:cy="341.33333"
     inkscape:window-x="-8"
     inkscape:window-y="-8"
     inkscape:window-maximized="1"
     inkscape:current-layer="svg14" />
  <path
     d="m17.453125 89.800781h54.890625c9.625 0 17.453125-7.832031 17.453125-17.457031v-54.890625c0-9.621094-7.828125-17.453125-17.453125-17.453125h-54.890625c-9.625 0-17.453125 7.828125-17.453125 17.453125v54.890625c0 9.625 7.828125 17.457031 17.453125 17.457031zm-2.453125-72.347656c0-1.351563 1.101562-2.453125 2.453125-2.453125h54.890625c1.351562 0 2.453125 1.101562 2.453125 2.453125v54.890625c0 1.351562-1.101563 2.453125-2.453125 2.453125h-54.890625c-1.351563 0-2.453125-1.101563-2.453125-2.453125zm0 0"
     id="path2"
     style="fill:#ff2a2a" />
  <path
     d="m494.546875 0h-47.851563c-4.140624 0-7.5 3.359375-7.5 7.5s3.359376 7.5 7.5 7.5h47.851563c1.351563 0 2.453125 1.101562 2.453125 2.453125v54.890625c0 1.351562-1.101562 2.453125-2.453125 2.453125h-362.535156c-1.351563 0-2.453125-1.101563-2.453125-2.453125v-54.890625c0-1.351563 1.101562-2.453125 2.453125-2.453125h279.292969c4.140624 0 7.5-3.359375 7.5-7.5s-3.359376-7.5-7.5-7.5h-279.292969c-9.625 0-17.453125 7.828125-17.453125 17.453125v54.890625c0 9.625 7.828125 17.453125 17.453125 17.453125h362.535156c9.625 0 17.453125-7.828125 17.453125-17.453125v-54.890625c0-9.625-7.828125-17.453125-17.453125-17.453125zm0 0"
     id="path4"
     style="fill:#ff2a2a" />
  <path
     d="m17.453125 203.046875h54.890625c9.625 0 17.453125-7.832031 17.453125-17.453125v-54.890625c0-9.625-7.828125-17.457031-17.453125-17.457031h-54.890625c-9.625 0-17.453125 7.832031-17.453125 17.457031v54.890625c0 9.621094 7.828125 17.453125 17.453125 17.453125zm-2.453125-72.34375c0-1.355469 1.101562-2.457031 2.453125-2.457031h54.890625c1.351562 0 2.453125 1.101562 2.453125 2.457031v54.890625c0 1.351562-1.101563 2.453125-2.453125 2.453125h-54.890625c-1.351563 0-2.453125-1.101563-2.453125-2.453125zm0 0"
     id="path6"
     style="fill:#ff2a2a" />
  <path
     d="m132.011719 203.046875h242.535156c9.625 0 17.453125-7.832031 17.453125-17.453125v-54.890625c0-9.625-7.828125-17.457031-17.453125-17.457031h-189.847656c-4.144531 0-7.5 3.359375-7.5 7.5 0 4.144531 3.355469 7.5 7.5 7.5h189.847656c1.351563 0 2.453125 1.101562 2.453125 2.457031v54.890625c0 1.351562-1.101562 2.453125-2.453125 2.453125h-242.535156c-1.351563 0-2.453125-1.101563-2.453125-2.453125v-54.890625c0-1.355469 1.101562-2.457031 2.453125-2.457031h17.292969c4.140624 0 7.5-3.355469 7.5-7.5 0-4.140625-3.359376-7.5-7.5-7.5h-17.292969c-9.625 0-17.453125 7.832031-17.453125 17.457031v54.890625c0 9.621094 7.828125 17.453125 17.453125 17.453125zm0 0"
     id="path8"
     style="fill:#ff2a2a" />
  <path
     d="m72.34375 226.496094h-54.890625c-9.625 0-17.453125 7.828125-17.453125 17.453125v54.890625c0 9.625 7.828125 17.453125 17.453125 17.453125h54.890625c9.625 0 17.457031-7.828125 17.457031-17.453125v-10.996094c0-4.144531-3.359375-7.5-7.5-7.5-4.144531 0-7.5 3.355469-7.5 7.5v10.996094c0 1.351562-1.101562 2.453125-2.457031 2.453125h-54.890625c-1.351563 0-2.453125-1.101563-2.453125-2.453125v-54.890625c0-1.351563 1.101562-2.453125 2.453125-2.453125h54.890625c1.355469 0 2.457031 1.101562 2.457031 2.453125v8.5c0 4.140625 3.355469 7.5 7.5 7.5 4.140625 0 7.5-3.359375 7.5-7.5v-8.5c0-9.625-7.832031-17.453125-17.457031-17.453125zm0 0"
     id="path10"
     style="fill:#ff2a2a" />
  <path
     d="m494.546875 226.496094h-362.535156c-9.625 0-17.453125 7.828125-17.453125 17.453125v54.890625c0 9.625 7.828125 17.453125 17.453125 17.453125h362.535156c9.625 0 17.453125-7.828125 17.453125-17.453125v-54.890625c0-9.625-7.828125-17.453125-17.453125-17.453125zm2.453125 72.34375c0 1.351562-1.101562 2.453125-2.453125 2.453125h-362.535156c-1.351563 0-2.453125-1.101563-2.453125-2.453125v-54.890625c0-1.351563 1.101562-2.453125 2.453125-2.453125h362.535156c1.351563 0 2.453125 1.101562 2.453125 2.453125zm0 0"
     id="path12"
     style="fill:#ff2a2a" />
</svg>
