<?xml version="1.0" encoding="UTF-8" standalone="no"?>
<svg
   xmlns:dc="http://purl.org/dc/elements/1.1/"
   xmlns:cc="http://creativecommons.org/ns#"
   xmlns:rdf="http://www.w3.org/1999/02/22-rdf-syntax-ns#"
   xmlns:svg="http://www.w3.org/2000/svg"
   xmlns="http://www.w3.org/2000/svg"
   xmlns:sodipodi="http://sodipodi.sourceforge.net/DTD/sodipodi-0.dtd"
   xmlns:inkscape="http://www.inkscape.org/namespaces/inkscape"
   id="Capa_1"
   enable-background="new 0 0 512 512"
   height="512"
   viewBox="0 0 512 512"
   width="512"
   version="1.1"
   sodipodi:docname="m_interferencia.svg"
   inkscape:version="0.92.4 (5da689c313, 2019-01-14)">
  <metadata
     id="metadata23">
    <rdf:RDF>
      <cc:Work
         rdf:about="">
        <dc:format>image/svg+xml</dc:format>
        <dc:type
           rdf:resource="http://purl.org/dc/dcmitype/StillImage" />
        <dc:title></dc:title>
      </cc:Work>
    </rdf:RDF>
  </metadata>
  <defs
     id="defs21" />
  <sodipodi:namedview
     pagecolor="#ffffff"
     bordercolor="#666666"
     borderopacity="1"
     objecttolerance="10"
     gridtolerance="10"
     guidetolerance="10"
     inkscape:pageopacity="0"
     inkscape:pageshadow="2"
     inkscape:window-width="1920"
     inkscape:window-height="1017"
     id="namedview19"
     showgrid="false"
     inkscape:zoom="0.4609375"
     inkscape:cx="256"
     inkscape:cy="256"
     inkscape:window-x="-8"
     inkscape:window-y="-8"
     inkscape:window-maximized="1"
     inkscape:current-layer="Capa_1" />
  <path
     d="m451 363.509v-66.509c0-8.284-6.716-15-15-15h-185v-45c0-8.284-6.716-15-15-15h-25v-52h5c8.284 0 15-6.716 15-15v-6.152l207.486-16.599c4.374-.35 8.571-1.322 12.514-2.815v55.566c0 8.284 6.716 15 15 15 8.271 0 15 6.729 15 15s-6.729 15-15 15-15-6.729-15-15c0-8.284-6.716-15-15-15s-15 6.716-15 15c0 24.813 20.187 45 45 45s45-20.187 45-45c0-19.556-12.539-36.239-30-42.43v-86.372c0-25.473-20.725-46.198-46.198-46.198h-205.898c-6.548-23.057-27.777-40-52.904-40h-60c-8.284 0-15 6.716-15 15v140c0 8.284 6.716 15 15 15h5v52h-25c-8.284 0-15 6.716-15 15v45h-5c-8.284 0-15 6.716-15 15v66.509c-34.192 6.969-60 37.272-60 73.491 0 41.355 33.645 75 75 75h360c41.355 0 75-33.645 75-75 0-36.219-25.808-66.522-60-73.491zm-30-1.509h-330v-50h330zm30-275.802c0 8.385-6.548 15.478-14.906 16.146l-205.094 16.408v-48.752h203.802c8.931 0 16.198 7.267 16.198 16.198zm-320-56.198h45c13.785 0 25 11.215 25 25v85h-70zm20 140h30v52h-30zm-40 82h110v30h-110zm325 230h-360c-24.813 0-45-20.187-45-45s20.187-45 45-45h360c24.813 0 45 20.187 45 45s-20.187 45-45 45z"
     id="path2"
     style="fill:#ff2a2a" />
  <circle
     cx="436"
     cy="437"
     r="15"
     id="circle4"
     style="fill:#ff2a2a" />
  <circle
     cx="376"
     cy="437"
     r="15"
     id="circle6"
     style="fill:#ff2a2a" />
  <circle
     cx="316"
     cy="437"
     r="15"
     id="circle8"
     style="fill:#ff2a2a" />
  <circle
     cx="76"
     cy="437"
     r="15"
     id="circle10"
     style="fill:#ff2a2a" />
  <circle
     cx="136"
     cy="437"
     r="15"
     id="circle12"
     style="fill:#ff2a2a" />
  <circle
     cx="196"
     cy="437"
     r="15"
     id="circle14"
     style="fill:#ff2a2a" />
  <circle
     cx="256"
     cy="437"
     r="15"
     id="circle16"
     style="fill:#ff2a2a" />
</svg>
