<?xml version="1.0" encoding="UTF-8" standalone="no"?>
<svg
   xmlns:dc="http://purl.org/dc/elements/1.1/"
   xmlns:cc="http://creativecommons.org/ns#"
   xmlns:rdf="http://www.w3.org/1999/02/22-rdf-syntax-ns#"
   xmlns:svg="http://www.w3.org/2000/svg"
   xmlns="http://www.w3.org/2000/svg"
   xmlns:sodipodi="http://sodipodi.sourceforge.net/DTD/sodipodi-0.dtd"
   xmlns:inkscape="http://www.inkscape.org/namespaces/inkscape"
   id="Layer_3"
   enable-background="new 0 0 64 64"
   height="512"
   viewBox="0 0 64 64"
   width="512"
   version="1.1"
   sodipodi:docname="mapa.svg"
   inkscape:version="0.92.4 (5da689c313, 2019-01-14)">
  <metadata
     id="metadata21">
    <rdf:RDF>
      <cc:Work
         rdf:about="">
        <dc:format>image/svg+xml</dc:format>
        <dc:type
           rdf:resource="http://purl.org/dc/dcmitype/StillImage" />
        <dc:title></dc:title>
      </cc:Work>
    </rdf:RDF>
  </metadata>
  <defs
     id="defs19" />
  <sodipodi:namedview
     pagecolor="#ffffff"
     bordercolor="#666666"
     borderopacity="1"
     objecttolerance="10"
     gridtolerance="10"
     guidetolerance="10"
     inkscape:pageopacity="0"
     inkscape:pageshadow="2"
     inkscape:window-width="1920"
     inkscape:window-height="1017"
     id="namedview17"
     showgrid="false"
     inkscape:zoom="0.4609375"
     inkscape:cx="256"
     inkscape:cy="-67.683811"
     inkscape:window-x="-8"
     inkscape:window-y="-8"
     inkscape:window-maximized="1"
     inkscape:current-layer="Layer_3" />
  <path
     d="m 19.461278,36.069729 1.005774,-0.90077 v -2.251871 h 1.508662 l 1.508659,-0.90076 1.005775,0.90076 -0.502887,1.801509 2.011548,1.351132 -1.508661,1.351126 -3.017322,0.45039 z"
     id="path2"
     inkscape:connector-curvature="0"
     style="fill:#f4b2b0;stroke-width:0.4759081" />
  <path
     d="m 35.121897,40.368077 -1.005772,-0.900746 -2.011549,0.900746 -1.005774,0.900748 1.508662,0.900763 h 3.01732 z"
     id="path4"
     inkscape:connector-curvature="0"
     style="fill:#f4b2b0;stroke-width:0.4759081" />
  <path
     style="fill:#b3404a;stroke-width:0.91027731"
     inkscape:connector-curvature="0"
     id="path6"
     d="m 57.728814,6.745148 h -1.999998 c -0.553,0 -1,0.3712156 -1,0.8286051 V 13.373993 H 5.7288142 c -2.7570005,0 -5.00000043,1.858564 -5.00000043,4.143 v 36.458631 c 0,2.284456 2.24299993,4.143024 5.00000043,4.143024 h 1.9999993 c 0.5529995,0 1.0000009,-0.370399 1.0000009,-0.828603 V 51.489811 H 57.728814 c 2.757,0 5.000002,-1.858574 5.000002,-4.143011 V 10.88817 c 0,-2.2844618 -2.243002,-4.143022 -5.000002,-4.143022 z m -2.999998,32.961901 -3.430001,-0.568429 -2.57,-2.839614 V 34.91771 c 0,-0.458207 -0.447001,-0.828596 -1,-0.828596 h -4.153 l -0.859999,-4.279752 c -0.028,-0.139193 -0.099,-0.270969 -0.205001,-0.38116 l -3.441,-3.563819 2.367001,-1.96132 c 0.200999,-0.166544 0.307999,-0.39689 0.290998,-0.631398 -0.016,-0.235316 -0.151,-0.454072 -0.372999,-0.601564 l -3.932999,-2.606798 1.861999,-1.028292 c 0.221,-0.121805 0.374,-0.311567 0.425999,-0.526986 l 0.839001,-3.476823 H 54.728816 Z M 6.7288137,56.461432 H 5.7288142 c -1.6540005,0 -3.0000011,-1.115286 -3.0000011,-2.485808 V 20.82978 c 0.8360001,0.520352 1.8750009,0.830272 3.0000011,0.830272 H 6.7288137 Z M 57.728814,49.832591 H 8.7288144 V 20.831428 c 0,-0.45738 -0.4470014,-0.828603 -1.0000009,-0.828603 H 5.7288142 c -1.6540005,0 -3.0000011,-1.115295 -3.0000011,-2.485832 0,-1.370494 1.3460006,-2.485791 3.0000011,-2.485791 H 38.508815 l -0.68,2.815601 -2.655001,1.466615 c -0.266,0.146673 -0.430999,0.389455 -0.443999,0.653776 -0.013,0.264323 0.124999,0.517883 0.374,0.682767 l 4.128001,2.736053 -2.210001,1.831216 c -0.36,0.298303 -0.393001,0.773921 -0.074,1.103707 l 3.838001,3.974823 0.957,4.758672 c 0.07999,0.398559 0.497,0.691882 0.986,0.691882 h 4 v 0.8286 c 0,0.179813 0.07,0.353818 0.200001,0.497186 l 3,3.314417 c 0.147,0.163225 0.362,0.275911 0.604001,0.315691 l 4.195999,0.695192 v 2.634966 c 0,0.458207 0.447002,0.828603 1,0.828603 h 1.999998 c 1.653999,0 3.000002,1.115296 3.000002,2.485831 0,1.370497 -1.346003,2.485791 -3.000003,2.485791 z m 3.000001,-5.798578 c -0.835998,-0.521191 -1.874999,-0.83027 -3.000001,-0.83027 H 56.728818 V 8.4023573 h 0.999996 c 1.653999,0 3.000001,1.1153007 3.000001,2.4858127 z" />
  <path
     style="fill:#b3404a;stroke-width:0.4759081"
     inkscape:connector-curvature="0"
     id="path8"
     d="m 28.936637,24.735944 0.421923,-1.511465 c 0.04325,-0.15358 -0.0075,-0.31572 -0.132261,-0.427412 l -1.005775,-0.900756 c -0.169975,-0.15267 -0.436002,-0.175642 -0.634642,-0.05626 l -1.381935,0.824643 h -1.356286 c -0.278097,0 -0.502887,0.201311 -0.502887,0.450364 v 2.065424 l -0.858428,0.768804 c -0.196628,0.176083 -0.196628,0.46073 0,0.636832 l 2.011549,1.801486 c 0.09503,0.08506 0.223281,0.131982 0.35554,0.131982 0.02765,0 0.05482,-0.0026 0.08246,-0.0071 l 3.017323,-0.450387 c 0.103595,-0.0153 0.199143,-0.05948 0.273067,-0.125657 l 1.50866,-1.351133 c 0.103098,-0.09232 0.156399,-0.219757 0.145838,-0.35039 -0.0106,-0.130164 -0.08298,-0.249957 -0.199647,-0.328327 z m -0.307265,2.462213 -2.603446,0.388228 -1.472955,-1.318703 0.650232,-0.582344 c 0.09454,-0.08429 0.147345,-0.198609 0.147345,-0.318426 v -1.801493 h 1.005774 c 0.09908,0 0.196629,-0.0266 0.279102,-0.07569 l 1.165693,-0.695827 0.512945,0.459371 -0.433489,1.554245 c -0.04928,0.175652 0.02414,0.360763 0.186069,0.469297 l 1.547382,1.03993 z" />
  <path
     style="fill:#b3404a;stroke-width:0.79717368"
     inkscape:connector-curvature="0"
     id="path10"
     d="m 38.962034,37.057986 c -0.03763,-0.1308 -0.11544,-0.250442 -0.224895,-0.345578 L 37.026918,35.226089 C 36.765255,34.999432 36.36934,34.944442 36.040122,35.086372 l -2.868895,1.247037 -2.129225,-1.85047 c -0.247127,-0.214787 -0.619954,-0.277211 -0.941477,-0.157558 l -4.984436,1.856422 -0.625941,-3.264715 3.269086,-4.971753 c 0.15392,-0.233364 0.150501,-0.520963 -0.0095,-0.751348 L 25.184373,23.47818 c -0.0838,-0.121139 -0.205226,-0.219244 -0.350595,-0.282409 l -5.130662,-2.229482 c -0.42157,-0.183568 -0.935491,-0.03489 -1.147558,0.332194 l -1.474209,2.562422 h -4.602203 v 1.486328 h 5.13066 c 0.324087,0 0.619955,-0.15902 0.765323,-0.410972 l 1.327987,-2.307514 4.143009,1.799928 2.179675,3.15771 -3.171603,4.823869 c -0.09748,0.148631 -0.133396,0.322538 -0.100911,0.490483 l 0.85511,4.458986 c 0.0436,0.22517 0.202662,0.420621 0.433542,0.529868 0.125701,0.061 0.266793,0.09143 0.408742,0.09143 0.114585,0 0.22917,-0.01937 0.336913,-0.06024 l 5.453893,-2.031052 1.55117,1.34809 -1.105657,0.960913 c -0.181284,0.157556 -0.271072,0.377533 -0.246272,0.598994 0.0248,0.221448 0.163326,0.421373 0.376248,0.54473 l 2.565331,1.486328 c 0.140239,0.08085 0.30613,0.124858 0.474586,0.124858 h 5.130663 c 0.263372,0 0.512211,-0.105538 0.673825,-0.286131 0.161616,-0.17984 0.219764,-0.415427 0.155631,-0.636883 z m -4.845909,2.409345 -1.481906,-0.858369 0.874776,-0.759505 2.744904,-1.192789 1.106513,0.962414 0.531878,1.848249 z" />
  <path
     d="m 19.461274,36.069731 1.00577,-0.90077 v -2.25187 h 1.50867 l 1.50865,-0.90076 1.00578,0.90076 -0.50289,1.80151 2.01155,1.35113 -1.50866,1.35113 -3.01732,0.45039 z"
     id="path2-2"
     inkscape:connector-curvature="0"
     style="fill:#f4b2b0;stroke-width:0.4759081" />
  <path
     d="m 35.121894,40.368081 -1.00577,-0.90075 -2.01155,0.90075 -1.00578,0.90075 1.50867,0.90076 h 3.01732 z"
     id="path4-5"
     inkscape:connector-curvature="0"
     style="fill:#f4b2b0;stroke-width:0.4759081" />
  <path
     style="fill:#b3404a;stroke-width:0.91027731"
     inkscape:connector-curvature="0"
     id="path6-0"
     d="m 57.728814,6.745149 h -2 c -0.553,0 -1,0.371216 -1,0.828605 v 5.80024 H 5.7288104 c -2.757001,0 -5.000001,1.858564 -5.000001,4.143 v 36.458627 c 0,2.28446 2.243,4.14303 5.000001,4.14303 h 1.999994 c 0.553,0 1.00001,-0.3704 1.00001,-0.8286 v -5.80024 H 57.728814 c 2.757,0 5,-1.85857 5,-4.14301 v -36.45863 c 0,-2.284462 -2.243,-4.143022 -5,-4.143022 z m -3,32.961902 -3.43,-0.56843 -2.57,-2.83961 v -1.3813 c 0,-0.45821 -0.447,-0.8286 -1,-0.8286 h -4.153 l -0.86,-4.279748 c -0.028,-0.139193 -0.099,-0.270969 -0.205,-0.38116 l -3.441,-3.563819 2.367,-1.96132 c 0.201,-0.166544 0.308,-0.39689 0.291,-0.631398 -0.016,-0.235316 -0.151,-0.454072 -0.373,-0.601564 l -3.933,-2.606798 1.862,-1.028292 c 0.221,-0.121805 0.374,-0.311567 0.426,-0.526986 l 0.839,-3.476823 h 14.18 z M 6.7288094,56.461431 h -0.999999 c -1.654001,0 -3.000001,-1.11528 -3.000001,-2.48581 V 20.829782 c 0.836,0.520351 1.875,0.830271 3.000001,0.830271 h 0.999999 z M 57.728814,49.832591 H 8.7288144 V 20.831429 c 0,-0.45738 -0.44701,-0.828602 -1,-0.828602 h -2.000004 c -1.654001,0 -3.000001,-1.115296 -3.000001,-2.485833 0,-1.370494 1.346,-2.485791 3.000001,-2.485791 H 38.508814 l -0.68,2.815601 -2.655,1.466615 c -0.266,0.146673 -0.431,0.389455 -0.444,0.653776 -0.013,0.264323 0.125,0.517883 0.374,0.682767 l 4.128,2.736053 -2.21,1.831217 c -0.36,0.298302 -0.393,0.77392 -0.074,1.103706 l 3.838,3.974823 0.957,4.75867 c 0.08,0.39856 0.497,0.69188 0.986,0.69188 h 4 v 0.8286 c 0,0.17982 0.07,0.35382 0.2,0.49719 l 3,3.31442 c 0.147,0.16322 0.362,0.27591 0.604,0.31569 l 4.196,0.69519 v 2.63497 c 0,0.4582 0.447,0.8286 1,0.8286 h 2 c 1.654,0 3,1.1153 3,2.48583 0,1.3705 -1.346,2.48579 -3,2.48579 z m 3,-5.79858 c -0.836,-0.52119 -1.875,-0.83027 -3,-0.83027 h -1 V 8.402358 h 1 c 1.65399,0 3,1.115301 3,2.485813 z" />
  <path
     style="fill:#b3404a;stroke-width:0.4759081"
     inkscape:connector-curvature="0"
     id="path8-6"
     d="m 28.936634,24.735945 0.42192,-1.511465 c 0.0433,-0.15358 -0.008,-0.31572 -0.13226,-0.427412 l -1.00577,-0.900757 c -0.16998,-0.15267 -0.43601,-0.175641 -0.63465,-0.05626 l -1.38193,0.824644 h -1.35629 c -0.27809,0 -0.50288,0.201311 -0.50288,0.450364 v 2.065424 l -0.85843,0.768803 c -0.19663,0.176084 -0.19663,0.46073 0,0.636833 l 2.01155,1.801486 c 0.095,0.08506 0.22328,0.131981 0.35554,0.131981 0.0277,0 0.0548,-0.0026 0.0825,-0.0071 l 3.01732,-0.450386 c 0.10359,-0.0153 0.19914,-0.05948 0.27307,-0.125657 l 1.50866,-1.351133 c 0.10309,-0.09232 0.1564,-0.219757 0.14583,-0.35039 -0.0106,-0.130164 -0.083,-0.249957 -0.19964,-0.328327 z m -0.30727,2.462213 -2.60344,0.388228 -1.47296,-1.318703 0.65023,-0.582344 c 0.0945,-0.08429 0.14735,-0.198609 0.14735,-0.318426 V 23.56542 h 1.00577 c 0.0991,0 0.19663,-0.0266 0.27911,-0.07569 l 1.16569,-0.695827 0.51294,0.459371 -0.43349,1.554245 c -0.0493,0.175652 0.0241,0.360762 0.18607,0.469297 l 1.54739,1.03993 z" />
  <path
     style="fill:#b3404a;stroke-width:0.79717368"
     inkscape:connector-curvature="0"
     id="path10-7"
     d="m 38.962034,37.057991 c -0.0376,-0.1308 -0.11544,-0.25045 -0.2249,-0.34558 l -1.71022,-1.48632 c -0.26166,-0.22666 -0.65758,-0.28165 -0.9868,-0.13972 l -2.86889,1.24704 -2.12923,-1.85047 c -0.24712,-0.21479 -0.61995,-0.27721 -0.94147,-0.15756 l -4.98444,1.85642 -0.62594,-3.26471 3.26909,-4.971754 c 0.15392,-0.233365 0.1505,-0.520964 -0.009,-0.751349 l -2.56537,-3.715807 c -0.0838,-0.12114 -0.20522,-0.219245 -0.35059,-0.282409 l -5.13066,-2.229482 c -0.42157,-0.183568 -0.93549,-0.03489 -1.14756,0.332194 l -1.47421,2.562422 h -4.6022 v 1.486328 h 5.13066 c 0.32408,0 0.61995,-0.15902 0.76532,-0.410972 l 1.32799,-2.307514 4.14301,1.799929 2.17967,3.15771 -3.1716,4.823864 c -0.0975,0.14864 -0.1334,0.32254 -0.10091,0.49049 l 0.85511,4.45898 c 0.0436,0.22517 0.20266,0.42062 0.43354,0.52987 0.1257,0.061 0.26679,0.0914 0.40874,0.0914 0.11459,0 0.22917,-0.0194 0.33691,-0.0602 l 5.4539,-2.03105 1.55117,1.34809 -1.10566,0.96091 c -0.18128,0.15756 -0.27107,0.37754 -0.24627,0.599 0.0248,0.22144 0.16332,0.42137 0.37625,0.54473 l 2.56533,1.48632 c 0.14024,0.0808 0.30613,0.12486 0.47458,0.12486 h 5.13067 c 0.26337,0 0.51221,-0.10554 0.67382,-0.28613 0.16162,-0.17984 0.21977,-0.41543 0.15563,-0.63688 z m -4.84591,2.40934 -1.48191,-0.85837 0.87478,-0.7595 2.7449,-1.19279 1.10651,0.96241 0.53188,1.84825 z" />
  <path
     d="m 19.461274,36.069732 1.00577,-0.900771 v -2.25187 h 1.50867 l 1.50865,-0.900759 1.00578,0.900759 -0.50289,1.80151 2.01155,1.351131 -1.50866,1.35113 -3.01732,0.45039 z"
     id="path2-2-0"
     inkscape:connector-curvature="0"
     style="fill:#f4b2b0;stroke-width:0.4759081" />
  <path
     d="m 35.121894,40.368081 -1.00577,-0.90075 -2.01155,0.90075 -1.00578,0.90075 1.50867,0.90076 h 3.01732 z"
     id="path4-5-5"
     inkscape:connector-curvature="0"
     style="fill:#f4b2b0;stroke-width:0.4759081" />
  <path
     style="fill:#b3404a;stroke-width:0.91027731"
     inkscape:connector-curvature="0"
     id="path6-0-2"
     d="m 57.728815,6.7451493 h -2 c -0.553,0 -1,0.371216 -1,0.828605 V 13.373994 H 5.72881 c -2.757001,0 -5.000001,1.858564 -5.000001,4.143 v 36.458627 c 0,2.28446 2.243,4.14303 5.000001,4.14303 h 1.999994 c 0.553,0 1.00001,-0.370399 1.00001,-0.8286 v -5.80024 h 49.000001 c 2.757,0 5,-1.85857 5,-4.14301 v -36.45863 c 0,-2.2844617 -2.243,-4.1430217 -5,-4.1430217 z m -3,32.9619017 -3.43,-0.568429 -2.57,-2.839611 v -1.381299 c 0,-0.458211 -0.447,-0.828601 -1,-0.828601 h -4.153001 l -0.86,-4.279748 c -0.028,-0.139193 -0.099,-0.270969 -0.205,-0.38116 l -3.441,-3.563819 2.367,-1.96132 c 0.201,-0.166544 0.308,-0.39689 0.291,-0.631398 -0.016,-0.235316 -0.151,-0.454072 -0.373,-0.601564 l -3.933,-2.606798 1.862,-1.028292 c 0.221,-0.121805 0.374,-0.311567 0.426,-0.526986 l 0.839,-3.476823 H 54.728815 Z M 6.728809,56.461431 H 5.72881 c -1.654001,0 -3.000001,-1.11528 -3.000001,-2.48581 V 20.829782 c 0.836,0.520351 1.875,0.830271 3.000001,0.830271 h 0.999999 z m 51.000006,-6.62884 H 8.728814 V 20.831429 c 0,-0.45738 -0.44701,-0.828603 -1,-0.828603 H 5.72881 c -1.654001,1e-6 -3.000001,-1.115295 -3.000001,-2.485832 0,-1.370494 1.346,-2.485791 3.000001,-2.485791 h 32.780004 l -0.68,2.815601 -2.655,1.466615 c -0.266,0.146673 -0.431,0.389455 -0.444,0.653776 -0.013,0.264323 0.125,0.517883 0.374,0.682767 l 4.128,2.736053 -2.21,1.831217 c -0.36,0.298302 -0.393,0.77392 -0.074,1.103706 l 3.838,3.974823 0.957,4.758671 c 0.08,0.39856 0.497,0.69188 0.986,0.69188 h 4.000001 v 0.8286 c 0,0.17982 0.07,0.35382 0.2,0.49719 l 3,3.31442 c 0.147,0.16322 0.362,0.27591 0.604,0.31569 l 4.196,0.69519 v 2.63497 c 0,0.4582 0.447,0.8286 1,0.8286 h 2 c 1.654,0 3,1.1153 3,2.48583 0,1.3705 -1.346,2.48579 -3,2.485789 z m 3,-5.79858 c -0.836,-0.52119 -1.875,-0.83027 -3,-0.83027 h -1 V 8.4023583 h 1 c 1.65399,0 3,1.115301 3,2.4858127 z" />
  <path
     style="fill:#b3404a;stroke-width:0.4759081"
     inkscape:connector-curvature="0"
     id="path8-6-6"
     d="m 28.936634,24.735945 0.42192,-1.511465 c 0.0433,-0.15358 -0.008,-0.31572 -0.13226,-0.427412 l -1.00577,-0.900757 c -0.16998,-0.15267 -0.43601,-0.175641 -0.63465,-0.05626 l -1.38193,0.824644 h -1.35629 c -0.27809,0 -0.50288,0.201311 -0.50288,0.450364 v 2.065424 l -0.85843,0.768803 c -0.19663,0.176084 -0.19663,0.46073 0,0.636833 l 2.01155,1.801486 c 0.095,0.08506 0.22328,0.131981 0.35554,0.131981 0.0277,0 0.0548,-0.0026 0.0825,-0.0071 l 3.01732,-0.450386 c 0.10359,-0.0153 0.19914,-0.05948 0.27307,-0.125657 l 1.50866,-1.351133 c 0.10309,-0.09232 0.1564,-0.219757 0.14583,-0.35039 -0.0106,-0.130164 -0.083,-0.249957 -0.19964,-0.328327 z m -0.30727,2.462213 -2.60344,0.388228 -1.47296,-1.318703 0.65023,-0.582344 c 0.0945,-0.08429 0.14735,-0.198609 0.14735,-0.318426 V 23.56542 h 1.00577 c 0.0991,0 0.19663,-0.0266 0.27911,-0.07569 l 1.16569,-0.695827 0.51294,0.459371 -0.43349,1.554245 c -0.0493,0.175652 0.0241,0.360762 0.18607,0.469297 l 1.54739,1.03993 z" />
  <path
     style="fill:#b3404a;stroke-width:0.79717368"
     inkscape:connector-curvature="0"
     id="path10-7-0"
     d="m 38.962034,37.057991 c -0.0376,-0.1308 -0.11544,-0.25045 -0.2249,-0.34558 l -1.71022,-1.48632 c -0.26166,-0.22666 -0.65758,-0.28165 -0.9868,-0.13972 l -2.86889,1.24704 -2.12923,-1.85047 c -0.24712,-0.21479 -0.61995,-0.27721 -0.94147,-0.15756 l -4.98444,1.85642 -0.62594,-3.26471 3.26909,-4.971755 c 0.15392,-0.233365 0.1505,-0.520963 -0.009,-0.751348 l -2.56537,-3.715807 c -0.0838,-0.12114 -0.20522,-0.219245 -0.35059,-0.28241 l -5.13066,-2.229481 c -0.42157,-0.183569 -0.93549,-0.03489 -1.14756,0.332194 l -1.47421,2.562422 h -4.6022 v 1.486328 h 5.13066 c 0.32408,0 0.61995,-0.15902 0.76532,-0.410973 l 1.32799,-2.307513 4.14301,1.799928 2.17967,3.15771 -3.1716,4.823865 c -0.0975,0.14864 -0.1334,0.32254 -0.10091,0.49049 l 0.85511,4.45898 c 0.0436,0.22517 0.20266,0.42062 0.43354,0.52987 0.1257,0.061 0.26679,0.0914 0.40874,0.0914 0.11459,0 0.22917,-0.0194 0.33691,-0.0602 l 5.4539,-2.03105 1.55117,1.34809 -1.10566,0.96091 c -0.18128,0.15756 -0.27107,0.37754 -0.24627,0.599 0.0248,0.22144 0.16332,0.42137 0.37625,0.54473 l 2.56533,1.48632 c 0.14024,0.0808 0.30613,0.12486 0.47458,0.12486 h 5.13067 c 0.26337,0 0.51221,-0.10554 0.67382,-0.28613 0.16162,-0.17984 0.21977,-0.41543 0.15563,-0.63688 z m -4.84591,2.40934 -1.48191,-0.85837 0.87478,-0.7595 2.7449,-1.19279 1.10651,0.96241 0.53188,1.84825 z" />
  <path
     d="m 19.461274,36.069732 1.00577,-0.900771 v -2.25187 h 1.50867 l 1.50865,-0.900759 1.00578,0.900759 -0.50289,1.80151 2.01155,1.351131 -1.50866,1.35113 -3.01732,0.45039 z"
     id="path2-2-3"
     inkscape:connector-curvature="0"
     style="fill:#f4b2b0;stroke-width:0.4759081" />
  <path
     d="m 35.121893,40.368081 -1.00577,-0.90075 -2.01155,0.90075 -1.00578,0.90075 1.50867,0.90076 h 3.01732 z"
     id="path4-5-2"
     inkscape:connector-curvature="0"
     style="fill:#f4b2b0;stroke-width:0.4759081" />
  <path
     style="fill:#b3404a;stroke-width:0.91027731"
     inkscape:connector-curvature="0"
     id="path6-0-6"
     d="m 57.728813,6.745149 h -2 c -0.553,0 -1,0.371216 -1,0.828605 v 5.80024 H 5.72881 c -2.757001,0 -5.000001,1.858564 -5.000001,4.143 v 36.458627 c 0,2.28446 2.243,4.14303 5.000001,4.14303 h 1.999994 c 0.553,0 1.00001,-0.370399 1.00001,-0.8286 v -5.80024 h 48.999999 c 2.757,0 5,-1.85857 5,-4.14301 v -36.45863 c 0,-2.284462 -2.243,-4.143022 -5,-4.143022 z m -3,32.961902 -3.43,-0.568429 -2.57,-2.839611 v -1.381299 c 0,-0.458211 -0.447,-0.828601 -1,-0.828601 h -4.153 l -0.86,-4.279748 c -0.028,-0.139193 -0.099,-0.270969 -0.205,-0.38116 l -3.441,-3.563819 2.367,-1.96132 c 0.201,-0.166544 0.308,-0.39689 0.291,-0.631398 -0.016,-0.235316 -0.151,-0.454072 -0.373,-0.601564 l -3.933,-2.606798 1.862,-1.028292 c 0.221,-0.121805 0.374,-0.311567 0.426,-0.526986 l 0.839,-3.476823 h 14.18 z M 6.728809,56.461431 H 5.72881 c -1.654001,0 -3.000001,-1.11528 -3.000001,-2.48581 V 20.829782 c 0.836,0.520351 1.875,0.830271 3.000001,0.830271 h 0.999999 z m 51.000004,-6.62884 H 8.728814 V 20.831429 c 0,-0.45738 -0.44701,-0.828603 -1,-0.828603 H 5.72881 c -1.654001,1e-6 -3.000001,-1.115295 -3.000001,-2.485832 0,-1.370494 1.346,-2.485791 3.000001,-2.485791 h 32.780003 l -0.68,2.815601 -2.655,1.466615 c -0.266,0.146673 -0.431,0.389455 -0.444,0.653776 -0.013,0.264323 0.125,0.517883 0.374,0.682767 l 4.128,2.736053 -2.21,1.831217 c -0.36,0.298302 -0.393,0.77392 -0.074,1.103706 l 3.838,3.974823 0.957,4.758671 c 0.08,0.39856 0.497,0.69188 0.986,0.69188 h 4 v 0.8286 c 0,0.17982 0.07,0.35382 0.2,0.49719 l 3,3.31442 c 0.147,0.16322 0.362,0.27591 0.604,0.31569 l 4.196,0.69519 v 2.63497 c 0,0.4582 0.447,0.8286 1,0.8286 h 2 c 1.654,0 3,1.1153 3,2.48583 0,1.3705 -1.346,2.48579 -3,2.485789 z m 3,-5.79858 c -0.836,-0.52119 -1.875,-0.83027 -3,-0.83027 h -1 V 8.402358 h 1 c 1.65399,0 3,1.115301 3,2.485813 z" />
  <path
     style="fill:#b3404a;stroke-width:0.4759081"
     inkscape:connector-curvature="0"
     id="path8-6-0"
     d="m 28.936633,24.735945 0.42192,-1.511465 c 0.0433,-0.15358 -0.008,-0.31572 -0.13226,-0.427412 l -1.00577,-0.900757 c -0.16998,-0.15267 -0.43601,-0.175641 -0.63465,-0.05626 l -1.381929,0.824644 h -1.35629 c -0.27809,0 -0.50288,0.201311 -0.50288,0.450364 v 2.065424 l -0.85843,0.768803 c -0.19663,0.176084 -0.19663,0.46073 0,0.636833 l 2.01155,1.801486 c 0.095,0.08506 0.22328,0.131981 0.35554,0.131981 0.0277,0 0.0548,-0.0026 0.0825,-0.0071 L 28.953253,28.0621 c 0.10359,-0.0153 0.19914,-0.05948 0.27307,-0.125657 l 1.50866,-1.351133 c 0.10309,-0.09232 0.1564,-0.219757 0.14583,-0.35039 -0.0106,-0.130164 -0.083,-0.249957 -0.19964,-0.328327 z m -0.30727,2.462213 -2.603439,0.388228 -1.47296,-1.318703 0.65023,-0.582344 c 0.0945,-0.08429 0.14735,-0.198609 0.14735,-0.318426 V 23.56542 h 1.00577 c 0.0991,0 0.196629,-0.0266 0.279109,-0.07569 l 1.16569,-0.695827 0.51294,0.459371 -0.43349,1.554245 c -0.0493,0.175652 0.0241,0.360762 0.18607,0.469297 l 1.54739,1.03993 z" />
  <path
     style="fill:#b3404a;stroke-width:0.79717368"
     inkscape:connector-curvature="0"
     id="path10-7-05"
     d="m 38.962033,37.057991 c -0.0376,-0.1308 -0.11544,-0.25045 -0.2249,-0.34558 l -1.71022,-1.48632 c -0.26166,-0.22666 -0.65758,-0.28165 -0.9868,-0.13972 l -2.86889,1.24704 -2.12923,-1.85047 c -0.24712,-0.21479 -0.61995,-0.27721 -0.94147,-0.15756 l -4.984439,1.85642 -0.62594,-3.26471 3.269089,-4.971755 c 0.15392,-0.233365 0.1505,-0.520963 -0.009,-0.751348 l -2.565369,-3.715807 c -0.0838,-0.12114 -0.20522,-0.219245 -0.35059,-0.28241 l -5.13066,-2.229481 c -0.42157,-0.183569 -0.93549,-0.03489 -1.14756,0.332194 l -1.47421,2.562422 h -4.6022 v 1.486328 h 5.13066 c 0.32408,0 0.61995,-0.15902 0.76532,-0.410973 l 1.32799,-2.307513 4.14301,1.799928 2.17967,3.15771 -3.1716,4.823865 c -0.0975,0.14864 -0.1334,0.32254 -0.10091,0.49049 l 0.85511,4.45898 c 0.0436,0.22517 0.20266,0.42062 0.43354,0.52987 0.1257,0.061 0.26679,0.0914 0.40874,0.0914 0.11459,0 0.22917,-0.0194 0.33691,-0.0602 l 5.453899,-2.03105 1.55117,1.34809 -1.10566,0.96091 c -0.18128,0.15756 -0.27107,0.37754 -0.24627,0.599 0.0248,0.22144 0.16332,0.42137 0.37625,0.54473 l 2.56533,1.48632 c 0.14024,0.0808 0.30613,0.12486 0.47458,0.12486 h 5.13067 c 0.26337,0 0.51221,-0.10554 0.67382,-0.28613 0.16162,-0.17984 0.21977,-0.41543 0.15563,-0.63688 z m -4.84591,2.40934 -1.48191,-0.85837 0.87478,-0.7595 2.7449,-1.19279 1.10651,0.96241 0.53188,1.84825 z" />
</svg>
