<?xml version="1.0" encoding="UTF-8" standalone="no"?>
<svg
   xmlns:dc="http://purl.org/dc/elements/1.1/"
   xmlns:cc="http://creativecommons.org/ns#"
   xmlns:rdf="http://www.w3.org/1999/02/22-rdf-syntax-ns#"
   xmlns:svg="http://www.w3.org/2000/svg"
   xmlns="http://www.w3.org/2000/svg"
   xmlns:sodipodi="http://sodipodi.sourceforge.net/DTD/sodipodi-0.dtd"
   xmlns:inkscape="http://www.inkscape.org/namespaces/inkscape"
   height="480pt"
   viewBox="0 -1 480 479"
   width="480pt"
   version="1.1"
   id="svg8"
   sodipodi:docname="presentacion.svg"
   inkscape:version="0.92.4 (5da689c313, 2019-01-14)">
  <metadata
     id="metadata14">
    <rdf:RDF>
      <cc:Work
         rdf:about="">
        <dc:format>image/svg+xml</dc:format>
        <dc:type
           rdf:resource="http://purl.org/dc/dcmitype/StillImage" />
        <dc:title></dc:title>
      </cc:Work>
    </rdf:RDF>
  </metadata>
  <defs
     id="defs12" />
  <sodipodi:namedview
     pagecolor="#ffffff"
     bordercolor="#666666"
     borderopacity="1"
     objecttolerance="10"
     gridtolerance="10"
     guidetolerance="10"
     inkscape:pageopacity="0"
     inkscape:pageshadow="2"
     inkscape:window-width="1920"
     inkscape:window-height="1017"
     id="namedview10"
     showgrid="false"
     inkscape:zoom="0.36875"
     inkscape:cx="320"
     inkscape:cy="320"
     inkscape:window-x="-8"
     inkscape:window-y="-8"
     inkscape:window-maximized="1"
     inkscape:current-layer="svg8" />
  <path
     d="m58.347656 234.84375 16-16 11.3125 11.316406-16 15.996094zm0 0"
     id="path2"
     style="fill:#fd9975;fill-opacity:1" />
  <path
     d="m480 48.5v-48h-480v48h16v216h-16v48h208v21.289062l-102.351562 133.855469 12.703124 9.710938 101.601563-132.855469h12.046875v112h16v-112h12.046875l101.601563 132.855469 12.703124-9.710938-102.351562-133.855469v-21.289062h208v-48h-16v-216zm-464-32h448v16h-448zm240 312h-32v-16h32zm208-32h-448v-16h448zm-16-32h-416v-216h416zm0 0"
     id="path4"
     style="fill:#fd9975;fill-opacity:1" />
  <path
     d="m176 139.8125 88 88 120-120v44.6875h16v-72h-72v16h44.6875l-108.6875 108.6875-88-88-93.65625 93.65625 11.3125 11.3125zm0 0"
     id="path6"
     style="fill:#fd9975;fill-opacity:1" />
</svg>
