<?xml version="1.0" encoding="UTF-8" standalone="no"?>
<svg
   xmlns:dc="http://purl.org/dc/elements/1.1/"
   xmlns:cc="http://creativecommons.org/ns#"
   xmlns:rdf="http://www.w3.org/1999/02/22-rdf-syntax-ns#"
   xmlns:svg="http://www.w3.org/2000/svg"
   xmlns="http://www.w3.org/2000/svg"
   xmlns:sodipodi="http://sodipodi.sourceforge.net/DTD/sodipodi-0.dtd"
   xmlns:inkscape="http://www.inkscape.org/namespaces/inkscape"
   height="511pt"
   viewBox="0 -49 511.99971 511"
   width="511pt"
   version="1.1"
   id="svg38"
   sodipodi:docname="seguimiento.svg"
   inkscape:version="0.92.4 (5da689c313, 2019-01-14)">
  <metadata
     id="metadata44">
    <rdf:RDF>
      <cc:Work
         rdf:about="">
        <dc:format>image/svg+xml</dc:format>
        <dc:type
           rdf:resource="http://purl.org/dc/dcmitype/StillImage" />
        <dc:title></dc:title>
      </cc:Work>
    </rdf:RDF>
  </metadata>
  <defs
     id="defs42" />
  <sodipodi:namedview
     pagecolor="#ffffff"
     bordercolor="#666666"
     borderopacity="1"
     objecttolerance="10"
     gridtolerance="10"
     guidetolerance="10"
     inkscape:pageopacity="0"
     inkscape:pageshadow="2"
     inkscape:window-width="1920"
     inkscape:window-height="1017"
     id="namedview40"
     showgrid="false"
     inkscape:zoom="1.2446184"
     inkscape:cx="340.66667"
     inkscape:cy="340.66667"
     inkscape:window-x="-8"
     inkscape:window-y="-8"
     inkscape:window-maximized="1"
     inkscape:current-layer="svg38" />
  <path
     d="m503.671875 352.023438-65.78125-65.78125c19.246094-47.3125-3.496094-102.886719-50.316406-123.195313v-147.214844c0-8.46875-6.863281-15.332031-15.332031-15.332031h-356.910157c-8.464843 0-15.332031 6.863281-15.332031 15.332031v247.445313c0 8.46875 6.867188 15.332031 15.332031 15.332031h243.507813c16.238281 52.488281 75.878906 80.617187 126.761718 59.917969l65.777344 65.777344c12.003906 12.015624 31.863282 10.523437 43.511719-1.125l7.648437-7.648438c11.644532-11.644531 13.132813-31.511719 1.132813-43.507812zm-473.003906-320.855469h326.242187v124.324219c-8.140625-.613282-16.359375-.160157-24.386718 1.300781v-58.632813c0-19.726562-30.664063-19.785156-30.664063 0v69.960938c-6.816406 3.984375-13.140625 8.824218-18.773437 14.355468.050781-.503906.078124-1.011718.078124-1.527343v-82.789063c0-19.726562-30.667968-19.785156-30.667968 0v82.789063c0 9.96875 9.726562 17.386719 19.34375 14.785156-10.742188 15.242187-16.722656 33.253906-17.195313 52.210937h-223.976562zm273.46875 264.789062c-24.664063-24.664062-25-66.527343 0-91.179687 26.753906-26.753906 71.824219-24.3125 95.664062 4.960937 27.902344 34.265625 12.402344 87.675781-29.476562 101.75-23.019531 7.734375-49.023438 1.628907-66.1875-15.53125zm176.71875 77.886719-7.652344 7.652344c-.273437.273437-.542969.425781-.753906.507812l-60.066407-60.066406c3.167969-2.785156 6.132813-5.746094 8.917969-8.917969l60.066407 60.066407c-.082032.210937-.238282.480468-.511719.757812zm0 0"
     id="path28"
     style="fill:#ffffff" />
  <path
     d="m70.386719 82.828125c-8.46875 0-15.335938 6.863281-15.335938 15.332031v82.789063c0 19.730469 30.667969 19.789062 30.667969 0v-82.789063c0-8.46875-6.867188-15.332031-15.332031-15.332031zm0 0"
     id="path30"
     style="fill:#ffffff" />
  <path
     d="m119.746094 82.828125c-8.46875 0-15.332032 6.863281-15.332032 15.332031v82.789063c0 19.730469 30.667969 19.789062 30.667969 0v-82.789063c0-8.46875-6.867187-15.332031-15.335937-15.332031zm0 0"
     id="path32"
     style="fill:#ffffff" />
  <path
     d="m169.105469 82.828125c-8.464844 0-15.332031 6.863281-15.332031 15.332031v82.789063c0 19.730469 30.667968 19.789062 30.667968 0v-82.789063c0-8.46875-6.867187-15.332031-15.335937-15.332031zm0 0"
     id="path34"
     style="fill:#ffffff" />
  <path
     d="m218.46875 82.828125c-8.46875 0-15.335938 6.863281-15.335938 15.332031v82.789063c0 19.730469 30.667969 19.789062 30.667969 0v-82.789063c0-8.46875-6.863281-15.332031-15.332031-15.332031zm0 0"
     id="path36"
     style="fill:#ffffff" />
</svg>
