<?xml version="1.0" encoding="iso-8859-1"?>
<!-- Generator: Adobe Illustrator 19.0.0, SVG Export Plug-In . SVG Version: 6.00 Build 0)  -->
<svg xmlns="http://www.w3.org/2000/svg" xmlns:xlink="http://www.w3.org/1999/xlink" version="1.1" id="Capa_1" x="0px" y="0px" viewBox="0 0 511.999 511.999" style="enable-background:new 0 0 511.999 511.999;" xml:space="preserve" width="512px" height="512px">
<g>
	<g>
		<path d="M488.468,60.12H23.532C10.557,60.12,0,70.677,0,83.653v304.613c0,12.976,10.557,23.532,23.532,23.532h10.802    l-17.233,28.722c-1.39,2.317-1.427,5.203-0.095,7.554c1.331,2.351,3.824,3.805,6.526,3.805H47.58c1.989,0,3.897-0.79,5.303-2.197    l37.884-37.884h330.465l37.884,37.884c1.406,1.406,3.314,2.197,5.303,2.197h24.048c2.702,0,5.195-1.453,6.526-3.805    c1.332-2.351,1.295-5.237-0.095-7.554l-17.233-28.722h10.802c12.976,0,23.532-10.557,23.532-23.532V83.653    C512,70.677,501.443,60.12,488.468,60.12z M44.474,436.878h-7.695l15.048-25.081h17.728L44.474,436.878z M467.526,436.878    l-25.081-25.081h17.728l15.048,25.081H467.526z M497,388.266L497,388.266c0,4.705-3.828,8.532-8.532,8.532H23.532    c-4.705,0-8.532-3.828-8.532-8.532V83.653c0-4.705,3.828-8.532,8.532-8.532h464.936c4.705,0,8.532,3.827,8.532,8.532V388.266z" fill="#FFFFFF"/>
	</g>
</g>
<g>
	<g>
		<path d="M472.436,364.734H39.564c-4.142,0-7.5,3.358-7.5,7.5c0,4.142,3.358,7.5,7.5,7.5h432.871c4.142,0,7.5-3.358,7.5-7.5    C479.935,368.091,476.578,364.734,472.436,364.734z" fill="#FFFFFF"/>
	</g>
</g>
<g>
	<g>
		<path d="M424.339,188.378c-14.812,0-27.265,10.263-30.64,24.049h-25.47c-4.142,0-7.5,3.357-7.5,7.5c0,4.141,3.358,7.5,7.5,7.5    h25.47c3.375,13.786,15.829,24.048,30.64,24.048c17.396,0,31.548-14.152,31.548-31.548S441.735,188.378,424.339,188.378z     M424.339,236.476c-9.125,0-16.548-7.423-16.548-16.548s7.423-16.549,16.548-16.549s16.548,7.424,16.548,16.549    S433.464,236.476,424.339,236.476z" fill="#FFFFFF"/>
	</g>
</g>
<g>
	<g>
		<path d="M343.66,219.862c-0.035-48.307-39.346-87.597-87.66-87.597c-48.332,0-87.654,39.318-87.661,87.648    c0,0.004-0.001,0.008-0.001,0.013c0,0.006,0.001,0.01,0.001,0.014c0.007,48.331,39.329,87.648,87.661,87.648    c48.315,0,87.625-39.29,87.66-87.597c0-0.022,0.003-0.043,0.003-0.064C343.663,219.905,343.66,219.884,343.66,219.862z     M304.291,165.696c-3.961,1.43-7.973,2.68-12.03,3.746c-1.111-3.254-2.333-6.366-3.668-9.302c-1.09-2.398-2.242-4.648-3.449-6.754    C292.177,156.479,298.63,160.651,304.291,165.696z M237.063,166.349c5.431-11.949,12.51-19.083,18.937-19.083    s13.506,7.133,18.937,19.083c0.889,1.956,1.718,4.013,2.495,6.144c-7.032,1.057-14.174,1.597-21.406,1.597    c-7.249,0-14.408-0.542-21.456-1.604C235.347,170.357,236.174,168.302,237.063,166.349z M226.855,153.387    c-1.205,2.107-2.358,4.356-3.448,6.754c-1.333,2.932-2.554,6.04-3.664,9.29c-4.054-1.066-8.061-2.317-12.019-3.747    C213.381,160.643,219.828,156.477,226.855,153.387z M196.979,177.622c6.147,2.493,12.409,4.588,18.774,6.271    c-1.935,8.934-3.13,18.566-3.532,28.533h-28.496C185.054,199.529,189.784,187.635,196.979,177.622z M183.724,227.429h28.497    v-0.001c0.403,9.964,1.597,19.593,3.531,28.526c-6.367,1.682-12.63,3.777-18.779,6.27    C189.78,252.214,185.053,240.321,183.724,227.429z M207.717,274.164c3.959-1.43,7.969-2.681,12.024-3.747    c1.111,3.253,2.332,6.362,3.666,9.296c1.09,2.398,2.242,4.647,3.449,6.754C219.826,283.375,213.376,279.208,207.717,274.164z     M274.937,273.505c-5.431,11.949-12.51,19.083-18.937,19.083s-13.506-7.134-18.937-19.083c-0.889-1.955-1.717-4.011-2.494-6.141    c7.04-1.059,14.19-1.6,21.431-1.6c7.241,0,14.391,0.541,21.431,1.6C276.654,269.495,275.826,271.551,274.937,273.505z     M281.584,252.831c-8.393-1.369-16.932-2.066-25.584-2.066s-17.191,0.697-25.584,2.066c-1.716-7.908-2.801-16.477-3.19-25.404    h57.548C284.385,236.354,283.3,244.924,281.584,252.831z M227.226,212.429v-0.001c0.389-8.929,1.474-17.5,3.191-25.409    c8.401,1.372,16.948,2.071,25.609,2.071c8.644,0,17.174-0.696,25.559-2.062c1.716,7.907,2.8,16.475,3.189,25.401H227.226z     M285.144,286.467c1.206-2.106,2.359-4.356,3.449-6.754c1.334-2.935,2.555-6.043,3.666-9.296    c4.056,1.066,8.065,2.316,12.024,3.747C298.624,279.207,292.174,283.376,285.144,286.467z M315.026,262.222    c-6.148-2.493-12.412-4.587-18.779-6.27c1.934-8.932,3.129-18.562,3.531-28.526h28.496    C326.947,240.32,322.219,252.214,315.026,262.222z M299.779,212.427c-0.402-9.962-1.597-19.59-3.53-28.52    c6.368-1.682,12.634-3.775,18.783-6.268c7.189,10.007,11.915,21.897,13.243,34.788H299.779z" fill="#FFFFFF"/>
	</g>
</g>
<g>
	<g>
		<path d="M143.772,212.427h-25.471c-3.375-13.786-15.829-24.049-30.64-24.049c-17.396,0-31.548,14.153-31.548,31.549    s14.152,31.548,31.548,31.548c14.812,0,27.265-10.262,30.64-24.048h25.471c4.142,0,7.5-3.358,7.5-7.5    C151.272,215.784,147.914,212.427,143.772,212.427z M87.661,236.476c-9.125,0-16.548-7.423-16.548-16.548    s7.423-16.549,16.548-16.549s16.548,7.424,16.548,16.549S96.786,236.476,87.661,236.476z" fill="#FFFFFF"/>
	</g>
</g>
<g>
</g>
<g>
</g>
<g>
</g>
<g>
</g>
<g>
</g>
<g>
</g>
<g>
</g>
<g>
</g>
<g>
</g>
<g>
</g>
<g>
</g>
<g>
</g>
<g>
</g>
<g>
</g>
<g>
</g>
</svg>
