<?xml version="1.0" encoding="UTF-8" standalone="no"?>
<!-- Generator: Adobe Illustrator 19.0.0, SVG Export Plug-In . SVG Version: 6.00 Build 0)  -->

<svg
   xmlns:dc="http://purl.org/dc/elements/1.1/"
   xmlns:cc="http://creativecommons.org/ns#"
   xmlns:rdf="http://www.w3.org/1999/02/22-rdf-syntax-ns#"
   xmlns:svg="http://www.w3.org/2000/svg"
   xmlns="http://www.w3.org/2000/svg"
   xmlns:sodipodi="http://sodipodi.sourceforge.net/DTD/sodipodi-0.dtd"
   xmlns:inkscape="http://www.inkscape.org/namespaces/inkscape"
   version="1.1"
   id="Capa_1"
   x="0px"
   y="0px"
   viewBox="0 0 60 60"
   style="enable-background:new 0 0 60 60;"
   xml:space="preserve"
   sodipodi:docname="tipoproyecto.svg"
   inkscape:version="0.92.4 (5da689c313, 2019-01-14)"><metadata
   id="metadata106"><rdf:RDF><cc:Work
       rdf:about=""><dc:format>image/svg+xml</dc:format><dc:type
         rdf:resource="http://purl.org/dc/dcmitype/StillImage" /><dc:title></dc:title></cc:Work></rdf:RDF></metadata><defs
   id="defs104" /><sodipodi:namedview
   pagecolor="#FD9975"
   bordercolor="#666666"
   borderopacity="1"
   objecttolerance="10"
   gridtolerance="10"
   guidetolerance="10"
   inkscape:pageopacity="0"
   inkscape:pageshadow="2"
   inkscape:window-width="1920"
   inkscape:window-height="1017"
   id="namedview102"
   showgrid="false"
   inkscape:zoom="14.133333"
   inkscape:cx="30"
   inkscape:cy="30"
   inkscape:window-x="-8"
   inkscape:window-y="-8"
   inkscape:window-maximized="1"
   inkscape:current-layer="Capa_1" />
<g
   id="g69"
   style="fill:#FD9975">
	<g
   id="g67"
   style="fill:#FD9975">
		<path
   d="M31,38h-4V24c0-3.9-3.1-7-7-7H10c-3.9,0-7,3.1-7,7v13H1c-0.6,0-1,0.4-1,1v4c0,0.6,0.4,1,1,1h7v16c0,0.6,0.4,1,1,1h6h6    c0.6,0,1-0.4,1-1v-9h9c0.6,0,1-0.4,1-1V39C32,38.4,31.6,38,31,38z M30,40v4h-8v-4H30z M25,24v14h-3V25h-2v2h-1v-8h1    C22.8,19,25,21.2,25,24z M13,27v-8h4v8H13z M5,24c0-2.8,2.2-5,5-5h1v8h-1v-2H8v12H5V24z M2,41v-2h6v2H2z M20,58h-4V40h2v-2h-6v2h2    v18h-4V42v-4v-9h10v10v10V58z M22,48v-2h8v2H22z"
   id="path59"
   style="fill:#FD9975" />
		<path
   d="M9,11c0,2.8,2.2,5,5,5h2c2.8,0,5-2.2,5-5V9h2V7h-2V5c0-2.8-2.2-5-5-5h-2c-2.8,0-5,2.2-5,5v2H7v2h2V11z M19,11    c0,1.7-1.3,3-3,3h-2c-1.7,0-3-1.3-3-3V9h8V11z M11,5c0-1.7,1.3-3,3-3v3h2V2c1.7,0,3,1.3,3,3v2h-8V5z"
   id="path61"
   style="fill:#FD9975" />
		<path
   d="M59,38h-4V24c0-3.9-3.1-7-7-7H38c-3.9,0-7,3.1-7,7v11h2V24c0-2.8,2.2-5,5-5h1v8h-1v-2h-2v34c0,0.6,0.4,1,1,1h6h6    c0.6,0,1-0.4,1-1v-9h9c0.6,0,1-0.4,1-1V39C60,38.4,59.6,38,59,38z M58,40v4h-8v-4H58z M53,24v14h-3V25h-2v2h-1v-8h1    C50.8,19,53,21.2,53,24z M41,19h4v8h-4V19z M48,58h-4V40h2v-2h-6v2h2v18h-4V29h10v10v10V58z M50,48v-2h8v2H50z"
   id="path63"
   style="fill:#FD9975" />
		<path
   d="M37,11c0,2.8,2.2,5,5,5h2c2.8,0,5-2.2,5-5V9h2V7h-2V5c0-2.8-2.2-5-5-5h-2c-2.8,0-5,2.2-5,5v2h-2v2h2V11z M47,11    c0,1.7-1.3,3-3,3h-2c-1.7,0-3-1.3-3-3V9h8V11z M39,5c0-1.7,1.3-3,3-3v3h2V2c1.7,0,3,1.3,3,3v2h-8V5z"
   id="path65"
   style="fill:#FD9975" />
	</g>
</g>
<g
   id="g71">
</g>
<g
   id="g73">
</g>
<g
   id="g75">
</g>
<g
   id="g77">
</g>
<g
   id="g79">
</g>
<g
   id="g81">
</g>
<g
   id="g83">
</g>
<g
   id="g85">
</g>
<g
   id="g87">
</g>
<g
   id="g89">
</g>
<g
   id="g91">
</g>
<g
   id="g93">
</g>
<g
   id="g95">
</g>
<g
   id="g97">
</g>
<g
   id="g99">
</g>
</svg>