<?xml version="1.0" encoding="UTF-8" standalone="no"?>
<svg
   xmlns:dc="http://purl.org/dc/elements/1.1/"
   xmlns:cc="http://creativecommons.org/ns#"
   xmlns:rdf="http://www.w3.org/1999/02/22-rdf-syntax-ns#"
   xmlns:svg="http://www.w3.org/2000/svg"
   xmlns="http://www.w3.org/2000/svg"
   xmlns:sodipodi="http://sodipodi.sourceforge.net/DTD/sodipodi-0.dtd"
   xmlns:inkscape="http://www.inkscape.org/namespaces/inkscape"
   id="Layer_1"
   height="512"
   viewBox="0 0 128 128"
   width="512"
   data-name="Layer 1"
   version="1.1"
   sodipodi:docname="ubicacionpredio.svg"
   inkscape:version="0.92.4 (5da689c313, 2019-01-14)">
  <metadata
     id="metadata13">
    <rdf:RDF>
      <cc:Work
         rdf:about="">
        <dc:format>image/svg+xml</dc:format>
        <dc:type
           rdf:resource="http://purl.org/dc/dcmitype/StillImage" />
        <dc:title></dc:title>
      </cc:Work>
    </rdf:RDF>
  </metadata>
  <defs
     id="defs11" />
  <sodipodi:namedview
     pagecolor="#ffffff"
     bordercolor="#666666"
     borderopacity="1"
     objecttolerance="10"
     gridtolerance="10"
     guidetolerance="10"
     inkscape:pageopacity="0"
     inkscape:pageshadow="2"
     inkscape:window-width="1920"
     inkscape:window-height="1017"
     id="namedview9"
     showgrid="false"
     inkscape:zoom="0.4609375"
     inkscape:cx="256"
     inkscape:cy="256"
     inkscape:window-x="-8"
     inkscape:window-y="-8"
     inkscape:window-maximized="1"
     inkscape:current-layer="Layer_1" />
  <path
     d="m78.817 84.69c7.9-8.971 16.266-21.074 16.266-32.105a31.083 31.083 0 1 0 -62.166 0c0 11.387 8.167 23.313 15.983 32.12a143.239 143.239 0 0 0 -23.449 3.128c-8.151 1.967-11.951 4.367-11.951 7.541 0 8.8 33.031 11.125 50.5 11.125s50.5-2.325 50.5-11.125c0-7.56-24.058-9.964-35.683-10.684zm-14.817-59.69a27.615 27.615 0 0 1 27.583 27.585c0 16.673-22.339 37.328-27.6 41.963-5.287-4.5-27.563-24.522-27.563-41.963a27.615 27.615 0 0 1 27.58-27.585zm34.139 75.284c-9.101 1.751-21.226 2.716-34.139 2.716s-25.038-.964-34.139-2.714c-10.675-2.055-12.861-4.397-12.861-4.912 0-1.667 10.082-6.112 34.974-7.334a123.128 123.128 0 0 0 10.932 10.17 1.751 1.751 0 0 0 2.213-.021 133.4 133.4 0 0 0 10.654-10.161c25.071 1.204 35.227 5.672 35.227 7.346 0 .515-2.186 2.857-12.861 4.911z"
     id="path2"
     style="fill:#fd9975;fill-opacity:1" />
  <path
     d="m81.147 52.585a17.147 17.147 0 1 0 -17.147 17.147 17.167 17.167 0 0 0 17.147-17.147zm-30.795 0a13.647 13.647 0 1 1 13.648 13.647 13.663 13.663 0 0 1 -13.647-13.647z"
     id="path4"
     style="fill:#fd9975;fill-opacity:1" />
  <path
     d="m55.581 32.652a1.75 1.75 0 1 0 -1.363-3.223 25.339 25.339 0 0 0 -11.948 10.525 1.75 1.75 0 1 0 3.023 1.762 21.83 21.83 0 0 1 10.288-9.064z"
     id="path6"
     style="fill:#fd9975;fill-opacity:1" />
</svg>
