<?xml version="1.0" encoding="iso-8859-1"?>
<!-- Generator: Adobe Illustrator 19.0.0, SVG Export Plug-In . SVG Version: 6.00 Build 0)  -->
<svg xmlns="http://www.w3.org/2000/svg" xmlns:xlink="http://www.w3.org/1999/xlink" version="1.1" id="Capa_1" x="0px" y="0px" viewBox="0 0 512 512" style="enable-background:new 0 0 512 512;" xml:space="preserve" width="512px" height="512px">
<g>
	<g>
		<path d="M455.528,247.489c-0.711-1.032-17.785-25.541-50.757-49.949c-30.411-22.512-80.839-49.348-148.381-49.348    c-53.445,0-104.877,17.055-148.734,49.321c-33.152,24.391-50.415,48.875-51.134,49.905L50.536,256l5.985,8.581    c0.719,1.03,17.981,25.515,51.134,49.905c43.36,31.901,94.124,48.921,146.918,49.303c0.476,0.006,0.95,0.018,1.427,0.018    c0.057,0,0.114-0.002,0.171-0.002c0.073,0,0.146,0.002,0.218,0.002c67.543,0.001,117.97-26.835,148.382-49.347    c32.972-24.408,50.046-48.917,50.757-49.949l5.865-8.511L455.528,247.489z M126.332,290.978    c-18.16-13.229-31.045-26.609-38.296-34.984c11.57-13.355,37.54-39.449,76.982-57.721c-10.639,16.703-16.81,36.516-16.81,57.744    c0,21.283,6.202,41.143,16.891,57.872C151.72,307.686,138.783,300.049,126.332,290.978z M256.106,333.805    c-0.113,0-0.227-0.003-0.34-0.003c-42.786-0.128-77.558-34.969-77.558-77.785c0-42.895,34.898-77.792,77.792-77.792    s77.792,34.898,77.792,77.792C333.792,298.876,298.952,333.747,256.106,333.805z M386.018,291.013    c-12.619,9.248-25.757,17.002-39.367,23.267c10.842-16.811,17.142-36.815,17.142-58.263c0-21.469-6.311-41.49-17.173-58.311    c13.621,6.268,26.77,14.026,39.398,23.281c18.077,13.249,30.856,26.649,38.023,35.012    C416.869,264.37,404.091,277.767,386.018,291.013z" fill="#FFFFFF"/>
	</g>
</g>
<g>
	<g>
		<path d="M256,211.155c-24.736,0-44.861,20.125-44.861,44.861c0,24.736,20.125,44.861,44.861,44.861    c24.736,0,44.861-20.125,44.861-44.861C300.861,231.28,280.736,211.155,256,211.155z M256,270.878    c-8.194,0-14.861-6.667-14.861-14.861c0-8.194,6.667-14.861,14.861-14.861c8.194,0,14.861,6.667,14.861,14.861    C270.861,264.211,264.194,270.878,256,270.878z" fill="#FFFFFF"/>
	</g>
</g>
<g>
	<g>
		<polygon points="0,89.382 0,207.463 30,207.463 30,119.382 111,119.382 111,89.382   " fill="#FFFFFF"/>
	</g>
</g>
<g>
	<g>
		<polygon points="482,304.537 482,392.618 401,392.618 401,422.618 512,422.618 512,304.537   " fill="#FFFFFF"/>
	</g>
</g>
<g>
</g>
<g>
</g>
<g>
</g>
<g>
</g>
<g>
</g>
<g>
</g>
<g>
</g>
<g>
</g>
<g>
</g>
<g>
</g>
<g>
</g>
<g>
</g>
<g>
</g>
<g>
</g>
<g>
</g>
</svg>
