<?xml version="1.0" standalone="no"?>
<!DOCTYPE svg PUBLIC "-//W3C//DTD SVG 20010904//EN"
 "http://www.w3.org/TR/2001/REC-SVG-20010904/DTD/svg10.dtd">
<svg version="1.0" xmlns="http://www.w3.org/2000/svg"
 width="302.000000pt" height="271.000000pt" viewBox="0 0 302.000000 271.000000"
 preserveAspectRatio="xMidYMid meet">

<g transform="translate(0.000000,271.000000) scale(0.100000,-0.100000)"
fill="#000000" stroke="none">
<path d="M440 2055 c0 -8 -24 -32 -53 -53 -70 -52 -114 -104 -146 -172 -23
-49 -26 -67 -26 -170 1 -151 22 -209 109 -296 69 -68 126 -99 206 -112 62 -9
80 -7 80 12 0 7 20 64 44 127 82 213 116 304 116 312 0 5 7 23 15 40 8 18 30
77 50 132 40 115 42 110 -52 145 -37 14 -80 20 -141 21 -78 1 -82 2 -43 10 24
5 46 11 49 14 10 10 -116 5 -148 -7 -26 -9 -35 -9 -38 0 -5 17 -22 15 -22 -3z
m91 -35 c-13 -11 -29 -20 -36 -20 -7 0 -22 -3 -32 -6 -15 -6 -16 -5 -5 7 12
14 66 37 87 38 6 0 -1 -9 -14 -19z m160 -10 c58 -18 117 -50 93 -50 -6 0 -15
5 -21 11 -13 13 -109 39 -145 39 -15 0 -30 5 -33 10 -10 16 38 12 106 -10z
m-323 -72 c-9 -7 -25 -22 -35 -33 -10 -12 -14 -14 -8 -5 18 29 38 50 48 50 6
0 4 -6 -5 -12z m-111 -340 c-2 -13 -4 -5 -4 17 -1 22 1 32 4 23 2 -10 2 -28 0
-40z m10 -50 c-3 -8 -6 -5 -6 6 -1 11 2 17 5 13 3 -3 4 -12 1 -19z m83 -140
c0 -6 -6 -5 -15 2 -8 7 -15 14 -15 16 0 2 7 1 15 -2 8 -4 15 -11 15 -16z m46
-40 l19 -21 -27 18 c-29 18 -34 25 -20 25 5 0 17 -10 28 -22z"/>
<path d="M942 1862 c-7 -5 -23 -42 -36 -83 -13 -41 -51 -152 -85 -248 -33 -96
-61 -180 -61 -187 0 -11 20 -14 85 -14 81 0 86 1 95 24 12 33 39 46 97 46 54
0 61 -4 86 -42 17 -27 21 -28 97 -28 57 0 80 4 80 13 0 29 -173 503 -187 515
-19 13 -150 17 -171 4z m106 -249 c6 -27 14 -58 18 -70 6 -21 3 -23 -35 -23
-22 0 -41 5 -41 10 0 21 34 130 40 130 4 0 12 -21 18 -47z"/>
<path d="M1556 1730 c-15 -5 -36 -16 -46 -25 -16 -14 -18 -14 -24 0 -5 13 -19
15 -73 13 l-68 -3 -3 -193 -2 -193 77 3 78 3 5 96 c6 115 20 139 82 139 l38 0
0 79 c0 63 -3 80 -16 85 -9 3 -16 6 -17 5 -1 0 -15 -5 -31 -9z"/>
<path d="M1745 1716 c-42 -18 -92 -73 -106 -114 -19 -56 -7 -153 23 -200 42
-62 100 -85 202 -80 101 5 149 30 177 92 32 72 29 76 -55 76 -71 0 -76 -1 -96
-30 -26 -37 -52 -38 -79 -4 -39 49 -22 148 27 161 20 5 30 0 47 -20 19 -25 27
-27 92 -27 40 0 75 5 78 11 4 6 -4 31 -17 56 -34 67 -87 93 -187 93 -42 -1
-89 -7 -106 -14z"/>
<path d="M2469 1280 c-119 -20 -189 -91 -189 -191 0 -109 50 -152 248 -209 40
-11 75 -27 79 -36 9 -25 -17 -44 -63 -44 -37 0 -47 5 -66 30 -21 30 -23 30
-115 30 -93 0 -93 0 -93 -25 0 -66 66 -140 149 -170 56 -19 173 -19 239 0 124
37 182 152 133 262 -25 54 -74 85 -182 116 -102 29 -129 42 -129 62 0 20 35
37 64 29 13 -3 34 -17 47 -30 20 -22 31 -24 106 -24 101 0 108 8 70 85 -32 66
-84 99 -177 114 -36 6 -67 10 -70 10 -3 -1 -26 -5 -51 -9z"/>
<path d="M1483 1267 c-70 -27 -120 -73 -154 -143 -31 -63 -34 -76 -34 -164 0
-88 3 -101 33 -163 51 -102 127 -147 252 -147 51 0 78 6 116 25 27 14 50 25
50 25 1 0 4 -9 7 -20 4 -17 14 -20 61 -20 45 0 57 4 66 20 6 12 9 77 8 167
l-3 148 -135 0 -135 0 2 -60 c0 -33 2 -63 2 -67 1 -5 17 -8 37 -8 45 0 41 -17
-9 -43 -102 -52 -185 73 -143 216 16 56 36 80 74 92 33 10 80 -13 98 -46 14
-29 16 -29 104 -29 49 0 92 4 95 10 11 18 -18 90 -53 130 -54 64 -101 83 -212
87 -58 1 -107 -2 -127 -10z"/>
<path d="M1992 968 l3 -303 95 0 95 0 0 300 0 300 -98 3 -97 3 2 -303z"/>
<path d="M610 1121 c-14 -27 -13 -124 2 -139 7 -7 34 -12 60 -12 41 0 48 3 48
20 0 16 -7 20 -31 20 -20 0 -29 4 -27 12 3 7 15 13 29 13 36 0 33 39 -3 43
-16 2 -28 8 -28 13 0 5 12 8 28 7 21 -2 28 2 30 20 3 20 0 22 -47 22 -39 0
-53 -4 -61 -19z"/>
<path d="M766 1121 c-26 -29 -14 -69 24 -83 39 -13 39 -32 1 -23 -21 4 -30 2
-35 -10 -10 -27 2 -35 49 -35 37 0 48 5 61 25 21 33 6 71 -31 81 -34 8 -32 25
3 22 21 -2 27 1 27 17 0 30 -74 34 -99 6z"/>
<path d="M910 1055 c0 -84 0 -85 25 -85 21 0 25 5 25 30 0 17 4 30 8 30 4 0
13 -13 19 -30 9 -23 17 -30 38 -30 23 0 25 3 18 23 -4 12 -8 46 -8 75 0 62
-10 72 -77 72 l-48 0 0 -85z m74 24 c-8 -14 -24 -10 -24 6 0 9 6 12 15 9 8 -4
12 -10 9 -15z"/>
<path d="M1080 1055 c0 -84 1 -86 23 -83 21 3 22 8 22 83 0 75 -1 80 -22 83
-22 3 -23 1 -23 -83z"/>
</g>
</svg>
