<svg id="Twotone" height="512" viewBox="0 0 64 64" width="512" xmlns="http://www.w3.org/2000/svg"><g id="Stroke_copy_3" data-name="Stroke copy 3"><rect fill="#79bd9a" height="8" rx="4" width="32" x="7" y="53"/><path d="m24 45v-8h-4v16h10v-6h-4a2 2 0 0 1 -2-2z" fill="#a8dba8"/><g fill="#cff09e"><path d="m50 27h-2a2 2 0 0 0 -2 2v4a2 2 0 0 0 2 2h8a2 2 0 0 0 2-2v-2h-4a4 4 0 0 1 -4-4z"/><path d="m26 38v-1h-2v8a2 2 0 0 0 2 2h4v-5a4 4 0 0 1 -4-4z"/><path d="m16 7v-4a2 2 0 0 0 -2 2v6h4v-2a2 2 0 0 1 -2-2z"/><path d="m14 13a2 2 0 0 1 -2-2h-1a2 2 0 0 0 -2 2v2h14v-2z"/></g><path d="m9 23h14v4h-14z" fill="#79bd9a"/></g><g id="Stroke_Close" fill="#3b8686" data-name="Stroke Close"><path d="m61.75 14.34a1 1 0 0 0 -.75-.34h-37v-1a3 3 0 0 0 -3-3h-2v-5a3 3 0 0 0 -6 0v5h-2a3 3 0 0 0 -3 3v1h-5a1 1 0 0 0 -.75.34 1 1 0 0 0 -.24.78l1 8a1 1 0 0 0 .99.88h4v3a1 1 0 0 0 1 1h2v24a5 5 0 0 0 0 10h24a5 5 0 0 0 0-10h-4v-11a5 5 0 0 0 -5-5h-5v-8h2a1 1 0 0 0 1-1v-3h24v2a3 3 0 0 0 -3 3v4a3 3 0 0 0 3 3h3v2a1 1 0 0 0 1 1 2 2 0 1 1 -2 2 1 1 0 0 0 -2 0 4 4 0 1 0 5-3.86v-1.14h3a3 3 0 0 0 3-3v-4a3 3 0 0 0 -3-3v-2h4a1 1 0 0 0 1-.88l1-8a1 1 0 0 0 -.25-.78zm-2.33 5.26-1.8-3.6h2.25zm-47.42 1.16-2.38-4.76h4.76zm4-3.52 2.38 4.76h-4.76zm1.62-1.24h4.76l-2.38 4.76zm36.76 0-2.38 4.76-2.38-4.76zm-8 0-2.38 4.76-2.38-4.76zm-8 0-2.38 4.76-2.38-4.76zm-8 0-2.38 4.76-2.38-4.76zm-15.38-11a1 1 0 0 1 2 0v5h-2zm-5 8a1 1 0 0 1 1-1h10a1 1 0 0 1 1 1v1h-12zm-3.62 3-1.8 3.6-.45-3.6zm1.62 1.24 2.38 4.76h-4.76zm6.24 34.76 4.76-2.38v2.38zm4.76-5.62-4.76-2.38 4.76-2.38zm-6-4v-4.76l4.76 2.38zm0 3.24 4.76 2.38-4.76 2.38zm6-7.24-4.76-2.38 4.76-2.38zm-6-4v-4.76l4.76 2.38zm25 22.62a3 3 0 0 1 -3 3h-24a3 3 0 0 1 0-6h24a3 3 0 0 1 3 3zm-12-19a3 3 0 0 1 3 3v5h-3a1 1 0 0 1 -1-1v-7zm-3 0v7a3 3 0 0 0 3 3h3v4h-8v-14zm-4-7.62-4.76-2.38h4.76zm3-4.38h-12v-2h12zm-.38-4 2.38-4.76 2.38 4.76zm8 0 2.38-4.76 2.38 4.76zm8 0 2.38-4.76 2.38 4.76zm10.38-4.76 2.38 4.76h-4.76zm9 11.76v4a1 1 0 0 1 -1 1h-8a1 1 0 0 1 -1-1v-4a1 1 0 0 1 1-1h8a1 1 0 0 1 1 1zm-3-3h-4v-2h4zm-.38-4 2.38-4.76 2.38 4.76z"/><path d="m14 57a1 1 0 0 0 1 1h16a1 1 0 0 0 0-2h-16a1 1 0 0 0 -1 1z"/><circle cx="35" cy="57" r="1"/><circle cx="11" cy="57" r="1"/><circle cx="50" cy="31" r="1"/><circle cx="54" cy="31" r="1"/></g></svg>