<?xml version="1.0" encoding="iso-8859-1"?>
<!DOCTYPE svg PUBLIC "-//W3C//DTD SVG 1.1//EN" "http://www.w3.org/Graphics/SVG/1.1/DTD/svg11.dtd">
<svg xmlns="http://www.w3.org/2000/svg" xmlns:xlink="http://www.w3.org/1999/xlink" version="1.1" viewBox="0 0 314.758 314.758" enable-background="new 0 0 314.758 314.758" width="512px" height="512px">
  <g>
    <path d="m95.87,299.758c0,8.284 6.716,15 15,15s15-6.716 15-15v-3.623h-30v3.623z" fill="#FFFFFF"/>
    <path d="m143.854,193.899c6.903-0.035 12.472-5.659 12.438-12.563l-.461-91.833c-0.083-16.229-13.353-29.433-29.581-29.433-7.97,0-57.997,0-67.24,0-16.229,0-29.498,13.203-29.581,29.434l-.461,91.832c-0.034,6.903 5.534,12.527 12.438,12.563 0.021,0 0.042,0 0.063,0 6.874,0 12.464-5.556 12.499-12.438l.461-91.831c0.007-1.368 1.12-2.472 2.487-2.468 1.367,0.004 2.473,1.113 2.473,2.481l.006,210.115c0,8.284 6.716,15 15,15 8.284,0 15-6.716 15-15v-4.509c-6.351-2.181-10.935-8.199-10.935-15.281v-9.71c0-7.082 4.584-13.1 10.935-15.281v-71.877c0-1.788 1.45-3.238 3.238-3.238 1.788,0 3.238,1.45 3.238,3.238v70.992h30c0-139.844-0.266-37.029-0.272-164.449 0-1.442 1.167-2.613 2.609-2.616 1.442-0.004 2.615,1.161 2.623,2.603l.461,91.832c0.035,6.883 5.624,12.438 12.499,12.438 0.02-0.001 0.042-0.001 0.063-0.001z" fill="#FFFFFF"/>
    <circle cx="92.629" cy="25.906" r="25.907" fill="#FFFFFF"/>
    <path d="m137.791,269.114h-4.512c-0.5-1.741-2.086-3.022-3.987-3.022h-34.667c-2.301,0-4.167,1.865-4.167,4.167v9.71c0,2.301 1.865,4.167 4.167,4.167h34.667c1.901,0 3.487-1.281 3.987-3.021h4.513c3.313,0 6-2.687 6-6-0.001-3.315-2.687-6.001-6.001-6.001z" fill="#FFFFFF"/>
    <path d="m262.958,258.758c-10.01,0-18.51,6.444-21.592,15.408-0.035,0.003-0.069,0.003-0.104,0.007l-8.624,1.006c-3.291,0.384-5.649,3.363-5.265,6.655 0.357,3.055 2.949,5.306 5.952,5.306 0.232,0 0.467-0.014 0.703-0.041l6.591-.769c2.182,10.336 11.352,18.095 22.338,18.095 12.611,0 22.833-10.223 22.833-22.833 0.001-12.611-10.221-22.834-22.832-22.834z" fill="#FFFFFF"/>
    <path d="m169.067,283.731l-11-7.167c-2.775-1.808-6.493-1.024-8.303,1.752-1.809,2.776-1.025,6.493 1.752,8.303l11,7.167c1.011,0.658 2.146,0.974 3.27,0.974 1.961,0 3.883-0.96 5.033-2.726 1.808-2.777 1.024-6.494-1.752-8.303z" fill="#FFFFFF"/>
    <path d="m193.458,288.758h-10.333c-3.314,0-6,2.686-6,6s2.686,6 6,6h10.333c3.313,0 6-2.686 6-6s-2.686-6-6-6z" fill="#FFFFFF"/>
    <path d="m214.573,282.846l-6.375,4.125c-2.782,1.8-3.578,5.515-1.777,8.297 1.148,1.774 3.075,2.741 5.043,2.741 1.116,0 2.246-0.311 3.254-0.964l6.375-4.125c2.782-1.8 3.578-5.515 1.777-8.297-1.799-2.781-5.512-3.58-8.297-1.777z" fill="#FFFFFF"/>
  </g>
</svg>
