<?xml version="1.0" encoding="UTF-8" standalone="no"?>
<!-- Generator: Adobe Illustrator 19.0.0, SVG Export Plug-In . SVG Version: 6.00 Build 0)  -->

<svg
   xmlns:dc="http://purl.org/dc/elements/1.1/"
   xmlns:cc="http://creativecommons.org/ns#"
   xmlns:rdf="http://www.w3.org/1999/02/22-rdf-syntax-ns#"
   xmlns:svg="http://www.w3.org/2000/svg"
   xmlns="http://www.w3.org/2000/svg"
   xmlns:sodipodi="http://sodipodi.sourceforge.net/DTD/sodipodi-0.dtd"
   xmlns:inkscape="http://www.inkscape.org/namespaces/inkscape"
   version="1.1"
   id="Capa_1"
   x="0px"
   y="0px"
   viewBox="0 0 512 512"
   style="enable-background:new 0 0 512 512;"
   xml:space="preserve"
   sodipodi:docname="seguridad.svg"
   inkscape:version="0.92.4 (5da689c313, 2019-01-14)"><metadata
   id="metadata4088"><rdf:RDF><cc:Work
       rdf:about=""><dc:format>image/svg+xml</dc:format><dc:type
         rdf:resource="http://purl.org/dc/dcmitype/StillImage" /><dc:title></dc:title></cc:Work></rdf:RDF></metadata><defs
   id="defs4086" /><sodipodi:namedview
   pagecolor="#ffffff"
   bordercolor="#666666"
   borderopacity="1"
   objecttolerance="10"
   gridtolerance="10"
   guidetolerance="10"
   inkscape:pageopacity="0"
   inkscape:pageshadow="2"
   inkscape:window-width="640"
   inkscape:window-height="480"
   id="namedview4084"
   showgrid="false"
   inkscape:zoom="0.4609375"
   inkscape:cx="256"
   inkscape:cy="256"
   inkscape:window-x="0"
   inkscape:window-y="0"
   inkscape:window-maximized="0"
   inkscape:current-layer="Capa_1" />
<g
   id="g4051"
   style="fill:#ffffff">
	<g
   id="g4049"
   style="fill:#ffffff">
		<path
   d="M437.333,192h-32v-42.667C405.333,66.99,338.344,0,256,0S106.667,66.99,106.667,149.333V192h-32    C68.771,192,64,196.771,64,202.667v266.667C64,492.865,83.135,512,106.667,512h298.667C428.865,512,448,492.865,448,469.333    V202.667C448,196.771,443.229,192,437.333,192z M287.938,414.823c0.333,3.01-0.635,6.031-2.656,8.292    c-2.021,2.26-4.917,3.552-7.948,3.552h-42.667c-3.031,0-5.927-1.292-7.948-3.552c-2.021-2.26-2.99-5.281-2.656-8.292l6.729-60.51    c-10.927-7.948-17.458-20.521-17.458-34.313c0-23.531,19.135-42.667,42.667-42.667s42.667,19.135,42.667,42.667    c0,13.792-6.531,26.365-17.458,34.313L287.938,414.823z M341.333,192H170.667v-42.667C170.667,102.281,208.948,64,256,64    s85.333,38.281,85.333,85.333V192z"
   id="path4047"
   style="fill:#ffffff" />
	</g>
</g>
<g
   id="g4053">
</g>
<g
   id="g4055">
</g>
<g
   id="g4057">
</g>
<g
   id="g4059">
</g>
<g
   id="g4061">
</g>
<g
   id="g4063">
</g>
<g
   id="g4065">
</g>
<g
   id="g4067">
</g>
<g
   id="g4069">
</g>
<g
   id="g4071">
</g>
<g
   id="g4073">
</g>
<g
   id="g4075">
</g>
<g
   id="g4077">
</g>
<g
   id="g4079">
</g>
<g
   id="g4081">
</g>
</svg>