<?xml version="1.0" encoding="UTF-8" standalone="no"?>
<!-- Generator: Adobe Illustrator 19.0.0, SVG Export Plug-In . SVG Version: 6.00 Build 0)  -->

<svg
   xmlns:dc="http://purl.org/dc/elements/1.1/"
   xmlns:cc="http://creativecommons.org/ns#"
   xmlns:rdf="http://www.w3.org/1999/02/22-rdf-syntax-ns#"
   xmlns:svg="http://www.w3.org/2000/svg"
   xmlns="http://www.w3.org/2000/svg"
   xmlns:sodipodi="http://sodipodi.sourceforge.net/DTD/sodipodi-0.dtd"
   xmlns:inkscape="http://www.inkscape.org/namespaces/inkscape"
   version="1.1"
   id="Capa_1"
   x="0px"
   y="0px"
   viewBox="0 0 60.123 60.123"
   style="enable-background:new 0 0 60.123 60.123;"
   xml:space="preserve"
   sodipodi:docname="detallados.svg"
   inkscape:version="0.92.4 (5da689c313, 2019-01-14)"><metadata
   id="metadata244"><rdf:RDF><cc:Work
       rdf:about=""><dc:format>image/svg+xml</dc:format><dc:type
         rdf:resource="http://purl.org/dc/dcmitype/StillImage" /><dc:title></dc:title></cc:Work></rdf:RDF></metadata><defs
   id="defs242" /><sodipodi:namedview
   pagecolor="#ffffff"
   bordercolor="#666666"
   borderopacity="1"
   objecttolerance="10"
   gridtolerance="10"
   guidetolerance="10"
   inkscape:pageopacity="0"
   inkscape:pageshadow="2"
   inkscape:window-width="640"
   inkscape:window-height="480"
   id="namedview240"
   showgrid="false"
   inkscape:zoom="3.9252864"
   inkscape:cx="30.061501"
   inkscape:cy="30.061501"
   inkscape:window-x="0"
   inkscape:window-y="0"
   inkscape:window-maximized="0"
   inkscape:current-layer="Capa_1" />
<g
   id="g207"
   style="fill:#ffffff">
	<path
   d="M57.124,51.893H16.92c-1.657,0-3-1.343-3-3s1.343-3,3-3h40.203c1.657,0,3,1.343,3,3S58.781,51.893,57.124,51.893z"
   id="path195"
   style="fill:#ffffff" />
	<path
   d="M57.124,33.062H16.92c-1.657,0-3-1.343-3-3s1.343-3,3-3h40.203c1.657,0,3,1.343,3,3   C60.124,31.719,58.781,33.062,57.124,33.062z"
   id="path197"
   style="fill:#ffffff" />
	<path
   d="M57.124,14.231H16.92c-1.657,0-3-1.343-3-3s1.343-3,3-3h40.203c1.657,0,3,1.343,3,3S58.781,14.231,57.124,14.231z"
   id="path199"
   style="fill:#ffffff" />
	<circle
   cx="4.029"
   cy="11.463"
   r="4.029"
   id="circle201"
   style="fill:#ffffff" />
	<circle
   cx="4.029"
   cy="30.062"
   r="4.029"
   id="circle203"
   style="fill:#ffffff" />
	<circle
   cx="4.029"
   cy="48.661"
   r="4.029"
   id="circle205"
   style="fill:#ffffff" />
</g>
<g
   id="g209">
</g>
<g
   id="g211">
</g>
<g
   id="g213">
</g>
<g
   id="g215">
</g>
<g
   id="g217">
</g>
<g
   id="g219">
</g>
<g
   id="g221">
</g>
<g
   id="g223">
</g>
<g
   id="g225">
</g>
<g
   id="g227">
</g>
<g
   id="g229">
</g>
<g
   id="g231">
</g>
<g
   id="g233">
</g>
<g
   id="g235">
</g>
<g
   id="g237">
</g>
</svg>