<svg xmlns="http://www.w3.org/2000/svg" height="464pt" version="1.1" viewBox="0 -78 464 464" width="464pt">
<g id="surface1">
<path d="M 0 240 L 178.078125 240 L 183.441406 224 L 319.199219 88.238281 L 375.761719 144.800781 L 280.558594 240 L 464 240 L 464 0 L 0 0 Z M 341.824219 65.601562 L 364.449219 42.976562 C 376.945312 30.476562 397.207031 30.476562 409.703125 42.976562 L 421.015625 54.289062 C 433.511719 66.785156 433.511719 87.046875 421.015625 99.542969 L 398.398438 122.175781 L 375.769531 144.800781 L 319.199219 88.230469 Z M 232 32 Z M 104 32 Z M 104 32 " style=" stroke:none;fill-rule:nonzero;fill:rgb(74.117647%,85.882353%,100%);fill-opacity:1;" />
<path d="M 319.199219 88.238281 L 183.441406 224 L 240 224 L 313.535156 150.464844 L 240 224 L 240 280.558594 L 280.558594 240 L 375.761719 144.800781 Z M 319.199219 88.238281 " style=" stroke:none;fill-rule:nonzero;fill:rgb(49.411765%,83.921569%,24.313725%);fill-opacity:1;" />
<path d="M 421.015625 99.550781 C 433.511719 87.054688 433.511719 66.792969 421.015625 54.296875 L 409.703125 42.984375 C 397.207031 30.488281 376.945312 30.488281 364.449219 42.984375 L 341.824219 65.601562 L 398.398438 122.175781 Z M 421.015625 99.550781 " style=" stroke:none;fill-rule:nonzero;fill:rgb(77.647059%,77.254902%,79.215686%);fill-opacity:1;" />
<path d="M 183.441406 224 L 178.078125 240 L 155.121094 308.878906 L 240 280.558594 L 240 224 Z M 183.441406 224 " style=" stroke:none;fill-rule:nonzero;fill:rgb(53.72549%,53.333333%,56.470588%);fill-opacity:1;" />
<path d="M 319.195312 88.242188 L 341.824219 65.613281 L 398.394531 122.183594 L 375.765625 144.8125 Z M 319.195312 88.242188 " style=" stroke:none;fill-rule:nonzero;fill:rgb(36.862745%,67.45098%,14.117647%);fill-opacity:1;" />
<path d="M 232 144 C 227.582031 144 224 140.417969 224 136 L 224 32 C 224 27.582031 227.582031 24 232 24 C 236.417969 24 240 27.582031 240 32 L 240 136 C 240 140.417969 236.417969 144 232 144 Z M 232 144 " style=" stroke:none;fill-rule:nonzero;fill:rgb(12.941176%,25.098039%,60.392157%);fill-opacity:1;" />
<path d="M 104 216 C 99.582031 216 96 212.417969 96 208 L 96 32 C 96 27.582031 99.582031 24 104 24 C 108.417969 24 112 27.582031 112 32 L 112 208 C 112 212.417969 108.417969 216 104 216 Z M 104 216 " style=" stroke:none;fill-rule:nonzero;fill:rgb(12.941176%,25.098039%,60.392157%);fill-opacity:1;" />
<path d="M 256 216 C 252.765625 216 249.847656 214.050781 248.609375 211.0625 C 247.371094 208.074219 248.058594 204.632812 250.34375 202.34375 L 323.878906 128.800781 C 327.007812 125.675781 332.074219 125.675781 335.199219 128.800781 C 338.324219 131.925781 338.324219 136.992188 335.199219 140.121094 L 261.664062 213.65625 C 260.160156 215.160156 258.125 216 256 216 Z M 256 216 " style=" stroke:none;fill-rule:nonzero;fill:rgb(36.862745%,67.45098%,14.117647%);fill-opacity:1;" />
</g>
</svg>