<?xml version="1.0" encoding="UTF-8" standalone="no"?>
<svg
   xmlns:dc="http://purl.org/dc/elements/1.1/"
   xmlns:cc="http://creativecommons.org/ns#"
   xmlns:rdf="http://www.w3.org/1999/02/22-rdf-syntax-ns#"
   xmlns:svg="http://www.w3.org/2000/svg"
   xmlns="http://www.w3.org/2000/svg"
   xmlns:sodipodi="http://sodipodi.sourceforge.net/DTD/sodipodi-0.dtd"
   xmlns:inkscape="http://www.inkscape.org/namespaces/inkscape"
   height="512pt"
   viewBox="0 0 512 512"
   width="512pt"
   version="1.1"
   id="svg3779"
   sodipodi:docname="estadistica.svg"
   inkscape:version="0.92.4 (5da689c313, 2019-01-14)">
  <metadata
     id="metadata3785">
    <rdf:RDF>
      <cc:Work
         rdf:about="">
        <dc:format>image/svg+xml</dc:format>
        <dc:type
           rdf:resource="http://purl.org/dc/dcmitype/StillImage" />
        <dc:title></dc:title>
      </cc:Work>
    </rdf:RDF>
  </metadata>
  <defs
     id="defs3783" />
  <sodipodi:namedview
     pagecolor="#ffffff"
     bordercolor="#666666"
     borderopacity="1"
     objecttolerance="10"
     gridtolerance="10"
     guidetolerance="10"
     inkscape:pageopacity="0"
     inkscape:pageshadow="2"
     inkscape:window-width="1920"
     inkscape:window-height="1017"
     id="namedview3781"
     showgrid="false"
     inkscape:zoom="0.62109375"
     inkscape:cx="38.52598"
     inkscape:cy="254.24496"
     inkscape:window-x="-8"
     inkscape:window-y="-8"
     inkscape:window-maximized="1"
     inkscape:current-layer="svg3779" />
  <path
     d="m76 240c12.101562 0 23.054688-4.855469 31.148438-12.652344l44.402343 22.199219c-.222656 1.808594-.550781 3.585937-.550781 5.453125 0 24.8125 20.1875 45 45 45s45-20.1875 45-45c0-6.925781-1.703125-13.410156-4.511719-19.277344l60.234375-60.234375c5.867188 2.808594 12.351563 4.511719 19.277344 4.511719 24.8125 0 45-20.1875 45-45 0-4.671875-.917969-9.089844-2.246094-13.328125l52.335938-39.242187c7.140625 4.769531 15.699218 7.570312 24.910156 7.570312 24.8125 0 45-20.1875 45-45s-20.1875-45-45-45-45 20.1875-45 45c0 4.671875.917969 9.089844 2.246094 13.328125l-52.335938 39.242187c-7.140625-4.769531-15.699218-7.570312-24.910156-7.570312-24.8125 0-45 20.1875-45 45 0 6.925781 1.703125 13.410156 4.511719 19.277344l-60.234375 60.234375c-5.867188-2.808594-12.351563-4.511719-19.277344-4.511719-12.101562 0-23.054688 4.855469-31.148438 12.652344l-44.402343-22.199219c.222656-1.808594.550781-3.585937.550781-5.453125 0-24.8125-20.1875-45-45-45s-45 20.1875-45 45 20.1875 45 45 45zm0 0"
     id="path3775" />
  <path
     d="m497 482h-16v-317c0-8.289062-6.710938-15-15-15h-60c-8.289062 0-15 6.710938-15 15v317h-30v-227c0-8.289062-6.710938-15-15-15h-60c-8.289062 0-15 6.710938-15 15v227h-30v-107c0-8.289062-6.710938-15-15-15h-60c-8.289062 0-15 6.710938-15 15v107h-30v-167c0-8.289062-6.710938-15-15-15h-60c-8.289062 0-15 6.710938-15 15v167h-16c-8.289062 0-15 6.710938-15 15s6.710938 15 15 15h482c8.289062 0 15-6.710938 15-15s-6.710938-15-15-15zm0 0"
     id="path3777" />
  <path
     style="stroke-width:0.80503142;fill:#ffffff"
     d="m 250.7673,398.57308 c -12.56865,-2.3647 -21.83391,-7.29192 -30.99372,-16.48231 -12.08419,-12.12454 -16.92998,-23.21415 -17.52803,-40.11294 l -0.3504,-9.9014 -28.89291,-14.4508 c -15.8911,-7.94793 -29.23795,-14.45079 -29.65966,-14.45079 -0.42171,0 -3.23122,1.86951 -6.24334,4.15447 -10.68783,8.10763 -22.2771,11.94616 -36.06779,11.94616 -26.298692,0 -48.741721,-16.71351 -56.75261,-42.26415 -2.687547,-8.5719 -3.074032,-21.36242 -0.917711,-30.37124 7.122428,-29.75655 35.69513,-49.76018 65.288601,-45.70827 21.35713,2.92419 39.42668,16.65455 47.60519,36.17337 3.20259,7.64329 5.05069,17.68793 4.52739,24.60702 l -0.43283,5.72309 29.31243,14.64965 c 16.12183,8.05731 29.6785,14.64965 30.12594,14.64965 0.44743,0 2.82108,-1.63519 5.27478,-3.63375 5.21192,-4.24516 11.56911,-7.59835 19.34337,-10.20289 4.76152,-1.59522 7.16833,-1.85987 16.8267,-1.85026 10.57749,0.0106 11.71592,0.16795 18.51573,2.56042 l 7.24528,2.54921 40.37332,-40.31441 40.37331,-40.3144 -1.51855,-3.54263 c -4.44789,-10.37649 -5.58725,-25.04278 -2.80205,-36.0689 4.1804,-16.54948 16.05503,-31.47678 31.06869,-39.05565 9.03987,-4.56331 15.52668,-6.02888 26.54302,-5.99689 11.76151,0.0341 17.24529,1.27159 27.13555,6.12318 l 6.60725,3.24114 3.19657,-2.28167 c 20.19435,-14.41453 66.78769,-49.995622 66.50807,-50.789035 -0.19587,-0.555773 -0.95884,-3.985064 -1.6955,-7.620645 -3.52294,-17.386424 2.38597,-36.504119 15.69485,-50.779186 15.13304,-16.2316343 40.45567,-22.5169416 61.48047,-15.260006 9.91014,3.4205899 15.25698,6.816847 23.13563,14.695493 7.82383,7.823832 11.21007,13.12803 14.76995,23.135625 2.37177,6.667542 2.50833,7.691084 2.49861,18.72601 -0.009,10.663599 -0.20358,12.229843 -2.24568,18.113207 -3.31055,9.537852 -7.95858,16.844454 -15.45218,24.290497 -5.59548,5.55996 -7.91582,7.2071 -14.97048,10.62703 -17.84838,8.65247 -35.19773,8.68317 -52.74794,0.0933 -3.60955,-1.76667 -6.7838,-3.21212 -7.0539,-3.21212 -0.42326,0 -67.26249,49.81075 -69.21081,51.57813 -0.41107,0.3729 -0.15475,2.87567 0.60377,5.89534 1.66427,6.6255 1.69807,19.2913 0.07,26.2498 -4.24469,18.14256 -19.08302,35.03967 -36.75762,41.85767 -13.97121,5.3894 -28.57703,5.22262 -43.52318,-0.49702 l -3.84331,-1.47077 -40.26219,40.26219 -40.26219,40.2622 1.62783,3.67998 c 3.0375,6.86676 4.34518,13.6145 4.34518,22.42147 0,10.39508 -1.44665,16.3775 -6.39836,26.45948 -11.47401,23.36179 -38.02934,36.70218 -63.51458,31.90731 z"
     id="path3787"
     inkscape:connector-curvature="0"
     transform="scale(0.74999998)" />
  <path
     style="fill:#ffffff;stroke-width:0;stroke:#e7354e;stroke-opacity:0.00392157;stroke-miterlimit:4;stroke-dasharray:0,0;stroke-dashoffset:0"
     d="m 250.42008,398.14401 c -14.74066,-3.08406 -26.03833,-10.26295 -36.03322,-22.89662 -8.19934,-10.36407 -10.73428,-18.12935 -11.98062,-36.70024 l -0.46252,-6.89185 -28.72029,-14.27155 c -15.79616,-7.84935 -29.21767,-14.25746 -29.8256,-14.24023 -0.60792,0.0172 -3.3249,1.61267 -6.03774,3.54543 -13.46648,9.59421 -26.21475,13.05973 -42.768895,11.62637 -21.653578,-1.87489 -40.603979,-16.87297 -48.959909,-38.74877 -2.417737,-6.32962 -2.514448,-7.0559 -2.537813,-19.05837 -0.02146,-11.02377 0.197152,-13.13474 1.875802,-18.11321 5.425074,-16.08946 16.410013,-28.46173 31.911228,-35.9414 8.936306,-4.31196 16.435455,-5.77656 26.968557,-5.26703 22.39778,1.0835 40.95285,13.48056 50.83372,33.96315 3.84391,7.96825 5.48633,15.47711 5.5045,25.16558 l 0.014,7.45489 29.02006,14.48222 c 15.96099,7.96522 29.60355,14.48221 30.31675,14.48221 0.7132,0 3.14096,-1.38611 5.39504,-3.08023 5.70278,-4.28614 10.40764,-6.90869 16.97881,-9.46417 4.93612,-1.91962 7.06115,-2.23739 17.12924,-2.56144 11.24603,-0.36198 11.677,-0.31266 19.97435,2.28568 l 8.48031,2.65564 40.28925,-40.28925 40.28926,-40.28926 -2.05167,-5.94924 c -5.57801,-16.17459 -4.85775,-30.90987 2.21589,-45.33363 6.16874,-12.57858 15.4917,-22.02598 27.5377,-27.90526 8.09471,-3.95077 15.33216,-5.53774 25.25517,-5.53774 10.17151,0 17.3713,1.62957 26.35598,5.96531 l 7.43775,3.58923 12.68803,-9.32773 c 22.3075,-16.39954 57.36729,-43.374732 57.36729,-44.138677 0,-0.161099 -0.57908,-2.76067 -1.28685,-5.776824 -0.92632,-3.947543 -1.18664,-7.964832 -0.92917,-14.339263 0.62972,-15.591148 6.21944,-27.957053 17.83674,-39.459508 11.18798,-11.0773836 24.80359,-16.4901777 41.48021,-16.4901777 16.29714,0 28.62895,5.2473693 40.70007,17.3184977 7.99071,7.9907 12.47859,15.352027 15.62808,25.634225 2.41511,7.884663 2.40906,23.780853 -0.0121,31.629146 -4.94846,16.04102 -15.67394,28.998581 -29.99585,36.238321 -9.4723,4.78824 -17.24313,6.71753 -26.99648,6.7025 -9.43921,-0.0146 -15.82562,-1.4521 -25.71066,-5.78734 -6.66153,-2.92152 -7.77245,-3.19242 -9.27915,-2.26279 -2.10653,1.29974 -42.9375,31.53795 -57.25878,42.40414 l -10.46541,7.94058 0.24706,3.21085 c 0.13589,1.76598 0.31138,9.18822 0.38999,16.49388 0.13724,12.75624 0.0556,13.50234 -2.05849,18.8131 -7.64094,19.19457 -24.22203,33.82201 -43.1003,38.02203 -9.185,2.04346 -21.73837,1.26119 -31.55373,-1.96631 l -7.6478,-2.51476 -40.17653,40.16402 -40.17653,40.16403 2.59178,7.81613 c 1.96688,5.9316 2.6964,9.78292 3.02569,15.97341 0.58151,10.9322 -0.92979,17.85128 -6.26568,28.68559 -3.58852,7.28636 -5.11895,9.39773 -11.0903,15.30013 -12.13347,11.99335 -23.37751,16.93462 -39.53107,17.37217 -5.09183,0.13793 -10.86317,-0.0851 -12.82521,-0.49559 z"
     id="path3789"
     inkscape:connector-curvature="0"
     transform="scale(0.74999998)" />
  <path
     style="fill:#ffffff;stroke-width:0;stroke:#ffffff;stroke-opacity:0.00392157;stroke-miterlimit:4;stroke-dasharray:none"
     d="M 13.487092,681.12505 C 0.35377928,676.29482 -3.6944569,659.45461 5.877278,649.46908 c 5.247625,-5.47449 7.517561,-6.12321 22.50008,-6.4303 l 13.484277,-0.27638 0.01768,-113.64283 c 0.01685,-108.31998 0.08658,-113.7945 1.488597,-116.88083 1.877865,-4.13383 6.014986,-8.27095 10.148814,-10.14881 3.007865,-1.36638 6.35615,-1.47186 47.112204,-1.48411 26.54208,-0.008 45.00807,0.30179 46.74443,0.78415 3.77476,1.04861 9.21724,5.7779 11.44686,9.94685 l 1.78355,3.33488 0.21212,114.11321 0.21211,114.1132 h 20.51745 20.51744 v -73.68623 c 0,-81.28067 -0.27728,-76.77835 5.07225,-82.35915 1.41656,-1.47779 4.02461,-3.47025 5.79568,-4.42768 3.17058,-1.71399 3.8889,-1.74444 46.69182,-1.97929 31.77819,-0.17436 44.40239,0.0191 46.93162,0.71918 5.05557,1.39938 9.09574,4.69152 11.83568,9.64431 l 2.41509,4.36559 0.22156,73.86164 0.22156,73.86163 h 20.09535 20.09535 l 0.21139,-153.96226 0.2114,-153.96227 1.74077,-3.22012 c 2.05211,-3.79604 5.99908,-7.67915 9.93218,-9.77151 2.6295,-1.39886 5.68502,-1.5146 45.76734,-1.73353 37.25192,-0.20348 43.53066,-0.0657 47.32887,1.03845 5.20367,1.51275 9.97187,5.52737 12.31587,10.36942 1.65507,3.41891 1.6571,3.61215 1.6571,157.33247 v 153.90935 h 20.52831 20.5283 V 430.1107 c 0,-238.98156 -0.58767,-217.35911 6.08897,-224.03576 5.93283,-5.93282 6.03452,-5.94412 53.48335,-5.94412 45.86699,0 46.74485,0.0826 52.63216,4.95127 1.71749,1.42034 3.9781,4.41942 5.02358,6.66464 l 1.90086,4.0822 0.008,213.46674 0.008,213.46673 13.48428,0.27638 c 11.91725,0.24426 13.85972,0.47662 16.71495,1.9995 7.22281,3.85239 11.00239,10.05592 10.9644,17.99624 -0.0356,7.44576 -4.18955,13.93851 -11.11949,17.38018 -3.00338,1.49158 -10.7204,1.53087 -328.7108,1.67352 -274.898612,0.12333 -326.105151,-0.0267 -328.651278,-0.96317 z"
     id="path3791"
     inkscape:connector-curvature="0"
     transform="scale(0.74999998)" />
</svg>
