<?xml version="1.0" encoding="UTF-8" standalone="no"?>
<svg
   xmlns:dc="http://purl.org/dc/elements/1.1/"
   xmlns:cc="http://creativecommons.org/ns#"
   xmlns:rdf="http://www.w3.org/1999/02/22-rdf-syntax-ns#"
   xmlns:svg="http://www.w3.org/2000/svg"
   xmlns="http://www.w3.org/2000/svg"
   xmlns:sodipodi="http://sodipodi.sourceforge.net/DTD/sodipodi-0.dtd"
   xmlns:inkscape="http://www.inkscape.org/namespaces/inkscape"
   height="511pt"
   viewBox="0 1 511 511.99963"
   width="511pt"
   version="1.1"
   id="svg26"
   sodipodi:docname="motivo.svg"
   inkscape:version="0.92.4 (5da689c313, 2019-01-14)">
  <metadata
     id="metadata32">
    <rdf:RDF>
      <cc:Work
         rdf:about="">
        <dc:format>image/svg+xml</dc:format>
        <dc:type
           rdf:resource="http://purl.org/dc/dcmitype/StillImage" />
        <dc:title></dc:title>
      </cc:Work>
    </rdf:RDF>
  </metadata>
  <defs
     id="defs30" />
  <sodipodi:namedview
     pagecolor="#ffffff"
     bordercolor="#666666"
     borderopacity="1"
     objecttolerance="10"
     gridtolerance="10"
     guidetolerance="10"
     inkscape:pageopacity="0"
     inkscape:pageshadow="2"
     inkscape:window-width="1920"
     inkscape:window-height="1017"
     id="namedview28"
     showgrid="false"
     inkscape:zoom="1.2446184"
     inkscape:cx="340.66667"
     inkscape:cy="340.66667"
     inkscape:window-x="-8"
     inkscape:window-y="-8"
     inkscape:window-maximized="1"
     inkscape:current-layer="svg26" />
  <path
     d="m497.175781 145.574219c-14.050781-8.113281-32.964843-4.167969-42.121093 11.691406-.277344.480469-.179688 8.121094-.179688-99.003906 0-23.757813-26.003906-38.417969-46.273438-26.339844 0-19.625-14.769531-31.921875-30.632812-31.921875-15.703125 0-30.636719 12.09375-30.636719 31.921875-20.234375-12.058594-46.269531 2.546875-46.269531 26.339844v4.574219c-20.238281-12.0625-46.273438 2.542968-46.273438 26.335937v24.796875c0 4.144531 3.359376 7.5 7.5 7.5 4.144532 0 7.5-3.355469 7.5-7.5v-24.796875c0-8.621094 7.015626-15.636719 15.636719-15.636719 8.621094 0 15.636719 7.015625 15.636719 15.636719v72.796875c0 4.144531 3.355469 7.5 7.5 7.5 4.140625 0 7.5-3.355469 7.5-7.5v-103.707031c0-8.625 7.011719-15.636719 15.636719-15.636719 8.621093 0 15.636719 7.011719 15.636719 15.636719v103.707031c0 4.144531 3.355468 7.5 7.5 7.5 4.140624 0 7.496093-3.355469 7.496093-7.5v-131.332031c0-8.621094 7.015625-15.636719 15.636719-15.636719 8.625 0 15.636719 7.015625 15.636719 15.636719v131.332031c0 4.144531 3.359375 7.5 7.5 7.5 4.144531 0 7.5-3.355469 7.5-7.5v-103.707031c0-8.625 7.015625-15.636719 15.636719-15.636719 8.621093 0 15.636718 7.011719 15.636718 15.636719v125.265625l-7.191406 12.441406c-16.980469-6.457031-36.550781-2.515625-49.726562 10.65625-18.242188 18.242188-18.242188 47.921875 0 66.164062 1.464843 1.464844 3.382812 2.195313 5.304687 2.195313 6.621094 0 10.039063-8.0625 5.300781-12.800781-12.390625-12.394532-12.390625-32.558594 0-44.953125 10.175782-10.175781 25.96875-12.246094 38.398438-5.042969 3.582031 2.078125 8.179687.851562 10.253906-2.734375 35.46875-61.371094-9.386719 16.300781 26.101562-45.164063 2.089844-3.617187 5.460938-6.207031 9.496094-7.285156 13.332032-3.574218 24.574219 10.816406 17.589844 22.921875-66.992188 116.027344-65.515625 113.46875-65.636719 113.679688-14.871093 27.636719-43.585937 44.804687-74.9375 44.804687-46.894531 0-85.042969-38.152344-85.042969-85.046875v-104.394531c0-4.144531-3.355468-7.5-7.5-7.5-4.140624 0-7.5 3.355469-7.5 7.5v104.402344c0 54.980468 44.710938 100.035156 100.042969 100.035156 36.839844 0 70.585938-20.144531 88.09375-52.589844l65.464844-113.394531c8.445313-14.628906 3.417969-33.398437-11.214844-41.847656zm0 0"
     id="path22"
     style="fill:#ffffff" />
  <path
     d="m265.628906 354.328125c6.894532-11.507813 5.679688-27.035156-4.652344-37.371094l-12.996093-12.996093c.875-4.933594-.636719-9.996094-4.273438-13.632813l-21.535156-21.535156c-4.210937-4.210938-10.269531-5.46875-15.585937-3.777344l-12.265626-12.265625c-8.375-8.375-20.328124-10.878906-30.878906-7.5625l28.097656-104.875c1.183594-4.367188-1.476562-8.820312-5.710937-9.914062l-33.359375-8.941407c-4.332031-1.179687-8.824219 1.433594-9.921875 5.703125-1.316406 4.917969 6.214844-23.191406-22.210937 82.886719-1.070313 4 1.304687 8.113281 5.304687 9.1875s8.113281-1.304687 9.183594-5.304687l1.042969-3.886719 20.023437 5.367187-11.871094 44.316406-29.328125 29.328126c.03125-.117188 11.027344-41.152344 11.074219-41.328126 1.070313-4-1.300781-8.109374-5.300781-9.183593-4.003906-1.074219-8.117188 1.304687-9.1875 5.300781l-7.390625 27.578125c-11.984375-8.914063-29.058594-7.941406-39.925781 2.929687l-27.359376 27.355469c-48.132812 48.136719-48.136718 126.046875.003907 174.191407 48.132812 48.132812 126.046875 48.140624 174.1875 0l20.898437-20.898438c2.925782-2.929688 2.925782-7.675781 0-10.605469-2.929687-2.929687-7.679687-2.929687-10.609375 0l-20.894531 20.894531c-42.175781 42.179688-110.800781 42.179688-152.976562 0-42.175782-42.175781-42.175782-110.800781 0-152.976562l27.355468-27.355469c6.097656-6.097656 16.015625-6.09375 22.109375 0l2.828125 2.828125-6.027344 22.484375-4.238281 4.238281c-2.929687 2.929688-2.929687 7.675782 0 10.605469 2.929688 2.929688 7.675781 2.929688 10.605469 0 21.578125-21.574219 48.910156-48.910156 61.757812-61.757812 6.105469-6.109375 15.996094-6.113281 22.109376 0l11.054687 11.054687-44.300781 44.300782c-2.929688 2.929687-2.929688 7.679687 0 10.609374 2.929687 2.925782 7.679687 2.925782 10.605468 0 53.109376-53.113281 50.050782-50.367187 50.492188-49.917968 23.117188 23.113281 21.65625 21.558594 21.65625 21.820312 0 .261719 3.519531-3.351562-50.039062 50.207032-2.929688 2.929687-2.925782 7.675781 0 10.605468 2.929687 2.929688 7.679687 2.929688 10.609374 0l45.523438-45.527344 11.054688 11.058594c6.109374 6.105469 6.113281 15.996094 0 22.109375l-34.46875 34.46875c-2.929688 2.929688-2.929688 7.679688 0 10.605469 2.929687 2.929688 7.675781 2.929688 10.605468 0l29.164063-29.164062 11.058593 11.054687c6.109376 6.109375 6.109376 16 0 22.109375l-20.898437 20.898438c-4.738281 4.738281-1.316406 12.800781 5.304687 12.800781 1.917969 0 3.839844-.730469 5.304688-2.195313l20.894531-20.894531c11.972657-11.976563 11.972657-31.351563 0-43.324219zm-125.882812-158.773437 15.496094-57.824219 20.019531 5.363281-15.492188 57.828125zm0 0"
     id="path24"
     style="fill:#ffffff" />
</svg>
