<svg enable-background="new 0 0 58 45" height="512" viewBox="0 0 58 45" width="512" xmlns="http://www.w3.org/2000/svg"><path d="m56.634 5h-12.782-11.704-30.782c-.754 0-1.366.612-1.366 1.366v37.268c0 .754.612 1.366 1.366 1.366h55.268c.754 0 1.366-.612 1.366-1.366v-37.268c0-.754-.612-1.366-1.366-1.366z" fill="#23a24d"/><path d="m44 6.4c0 3.535-6 9.6-6 9.6s-6-6.065-6-9.6 2.686-6.4 6-6.4 6 2.865 6 6.4z" fill="#dd352e"/><path d="m39 8h-2c-.552 0-1-.448-1-1v-2c0-.552.448-1 1-1h2c.552 0 1 .448 1 1v2c0 .552-.448 1-1 1z" fill="#fff"/><path d="m39.653 14.181c-.935 1.089-1.653 1.819-1.653 1.819s-.718-.73-1.653-1.819c-1.944.411-3.347 1.512-3.347 2.819 0 1.657 2.239 3 5 3s5-1.343 5-3c0-1.307-1.403-2.408-3.347-2.819z" fill="#426d5f"/><path d="m19 25v-20h-6v7h-13v6h13v14h-13v6h13v7h6v-14h19v14h6v-14h14v-6z" fill="#ebba16"/></svg>