<svg height="512pt" viewBox="0 -54 512 512" width="512pt" xmlns="http://www.w3.org/2000/svg"><path d="m493.019531 148.636719-224.453125-137.570313c-7.710937-4.722656-17.421875-4.722656-25.132812 0l-224.453125 137.570313c-7.132813 4.371093-11.480469 12.136719-11.480469 20.503906v210.984375c0 8.851562 7.179688 16.03125 16.03125 16.03125h464.9375c8.851562 0 16.03125-7.179688 16.03125-16.03125v-210.984375c0-8.367187-4.347656-16.132813-11.480469-20.503906zm0 0" fill="#ffe09f"/><path d="m14.132812 152.570312c-1.417968 1.492188-2.628906 3.160157-3.621093 4.949219l245.488281 150.460938s174.824219-107.152344 245.484375-150.460938c-.988281-1.789062-2.199219-3.457031-3.617187-4.949219-.003907-.003906-.003907-.003906-.003907-.007812-1.417969-1.496094-3.042969-2.820312-4.847656-3.925781l-132.382813-81.140625h-209.265624l-132.386719 81.140625c-1.800781 1.105469-3.425781 2.429687-4.84375 3.925781 0 0-.003907.003906-.003907.007812zm0 0" fill="#f6d190"/><path d="m256 307.980469s127.164062-77.941407 208.417969-127.742188v-88.695312h-416.835938v88.695312zm0 0" fill="#eceaec"/><path d="m464.417969 180.238281v-33.449219l-208.417969 127.738282-208.417969-127.738282v33.449219l208.417969 127.742188s127.164062-77.941407 208.417969-127.742188zm0 0" fill="#dad8db"/><g fill="#b9cda5"><path d="m155.796875 203.769531c0 11.066407-8.972656 20.039063-20.039063 20.039063-11.066406 0-20.039062-8.972656-20.039062-20.039063 0-11.066406 8.972656-20.039062 20.039062-20.039062 11.066407 0 20.039063 8.972656 20.039063 20.039062zm0 0"/><path d="m396.28125 203.769531c0 11.066407-8.972656 20.039063-20.039062 20.039063-11.066407 0-20.039063-8.972656-20.039063-20.039063 0-11.066406 8.972656-20.039062 20.039063-20.039062 11.066406 0 20.039062 8.972656 20.039062 20.039062zm0 0"/><path d="m320.128906 203.769531c0-44.273437-28.710937-80.160156-64.128906-80.160156s-64.128906 35.886719-64.128906 80.160156c0 44.269531 28.710937 80.160157 64.128906 80.160157s64.128906-35.890626 64.128906-80.160157zm0 0"/></g><path d="m285.390625 233.617188c-8.828125-5.414063-18.964844-8.273438-29.324219-8.273438-10.351562 0-20.492187 2.859375-29.320312 8.273438l-24.039063 14.730468c11.507813 21.453125 31.074219 35.582032 53.292969 35.582032 22.238281 0 41.820312-14.15625 53.324219-35.644532zm0 0" fill="#96b49b"/><path d="m272.824219 254.121094c-10.28125-6.304688-23.230469-6.304688-33.511719 0l-225.824219 138.40625c2.757813 2.234375 6.21875 3.628906 10.042969 3.628906h464.9375c3.847656 0 7.335938-1.414062 10.097656-3.675781zm0 0" fill="#fff0c3"/><path d="m120.191406 191.289062c-2.757812 3.433594-4.472656 7.734376-4.472656 12.480469 0 11.070313 8.972656 20.039063 20.039062 20.039063 8.125 0 15.082032-4.855469 18.230469-11.804688zm0 0" fill="#96b49b"/><path d="m376.242188 223.808594c11.066406 0 20.039062-8.972656 20.039062-20.039063 0-4.746093-1.714844-9.046875-4.472656-12.480469l-33.796875 20.714844c3.148437 6.949219 10.105469 11.804688 18.230469 11.804688zm0 0" fill="#96b49b"/><path d="m496.9375 142.242188-25.019531-15.335938v-35.363281c0-4.140625-3.355469-7.5-7.5-7.5h-62.433594l-129.5-79.367188c-10.167969-6.234375-22.800781-6.234375-32.972656 0l-129.496094 79.367188h-62.433594c-4.144531 0-7.5 3.359375-7.5 7.5v35.363281l-25.019531 15.335938c-9.292969 5.691406-15.0625 16-15.0625 26.898437v210.984375c0 12.976562 10.558594 23.53125 23.53125 23.53125h464.9375c12.976562 0 23.53125-10.558594 23.53125-23.53125v-210.984375c0-10.898437-5.769531-21.207031-15.0625-26.898437zm-7.839844 12.789062c.34375.210938.679688.4375 1.003906.667969l-18.183593 11.144531v-22.34375zm-241.746094-137.566406c5.335938-3.269532 11.960938-3.269532 17.296876 0l108.632812 66.578125h-234.558594zm209.566407 81.578125v76.996093l-11.039063 6.765626c-3.53125 2.167968-4.640625 6.785156-2.476562 10.316406 1.414062 2.308594 3.878906 3.582031 6.402344 3.582031 1.335937 0 2.6875-.359375 3.910156-1.105469l43.28125-26.527344c0 .023438.003906.046876.003906.070313v210.984375c0 .84375-.128906 1.652344-.355469 2.421875l-173.976562-106.632813 102.136719-62.597656c3.53125-2.167968 4.640624-6.785156 2.476562-10.316406s-6.78125-4.640625-10.3125-2.472656l-9.28125 5.6875c.0625-.808594.101562-1.621094.101562-2.445313 0-17.394531-14.152343-31.546875-31.546874-31.546875-17.394532 0-31.546876 14.152344-31.546876 31.546875 0 13.113281 8.039063 24.375 19.449219 29.132813l-55.828125 34.214844-1.839844-1.125c13.503907-16.394532 21.152344-38.644532 21.152344-62.222657 0-30.207031-12.546875-56.890625-31.597656-72.660156h88.226562c4.144532 0 7.5-3.359375 7.5-7.5 0-4.144531-3.355468-7.5-7.5-7.5h-256.515624c-4.140626 0-7.5 3.355469-7.5 7.5 0 4.140625 3.359374 7.5 7.5 7.5h88.226562c-19.050781 15.769531-31.597656 42.453125-31.597656 72.660156 0 23.652344 7.617187 45.851563 21.128906 62.238281l-1.816406 1.109376-55.824219-34.214844c11.40625-4.757813 19.449219-16.019532 19.449219-29.132813 0-17.394531-14.152344-31.546875-31.546875-31.546875-17.398438 0-31.550781 14.152344-31.550781 31.546875 0 .824219.042968 1.636719.105468 2.445313l-49.234375-30.175782v-76.996093zm-296.722657 203.527343c-2.167968-3.53125-6.785156-4.640624-10.316406-2.476562l-134.523437 82.453125c-.226563-.769531-.355469-1.582031-.355469-2.421875v-210.984375c0-.027344.003906-.050781.003906-.074219l174.328125 106.847656-12.191406 7.472657c-3.53125 2.164062-4.640625 6.78125-2.476563 10.3125 2.164063 3.53125 6.78125 4.640625 10.316407 2.476562l62.371093-38.230469c5.335938-3.269531 11.960938-3.269531 17.296876 0l213.261718 130.710938h-443.820312l123.628906-75.773438c3.53125-2.164062 4.640625-6.78125 2.476562-10.3125zm-40.984374-98.800781c0-9.125 7.421874-16.546875 16.546874-16.546875s16.546876 7.421875 16.546876 16.546875-7.421876 16.546875-16.546876 16.546875-16.546874-7.421875-16.546874-16.546875zm136.789062-72.660156c31.226562 0 56.628906 32.59375 56.628906 72.660156 0 20.917969-6.910156 40.472657-19.070312 54.300781l-18.785156-11.511718c7.796874-4.515625 12.773437-11.832032 12.773437-20.242188 0-19.53125-18.207031-25.855468-29.085937-29.632812-16.265626-5.648438-19.007813-9.332032-19.007813-15.460938 0-4.746094 6.792969-10.035156 16.546875-10.035156s16.546875 5.289062 16.546875 10.035156c0 4.144532 3.359375 7.5 7.5 7.5 4.144531 0 7.5-3.355468 7.5-7.5 0-11.980468-10.09375-21.738281-24.046875-24.34375v-1.207031c0-4.140625-3.359375-7.5-7.5-7.5s-7.5 3.359375-7.5 7.5v1.207031c-13.953125 2.605469-24.046875 12.363282-24.046875 24.34375 0 19.53125 18.207031 25.855469 29.085937 29.632813 16.265626 5.644531 19.007813 9.332031 19.007813 15.457031 0 4.75-6.792969 10.035156-16.546875 10.035156s-16.546875-5.289062-16.546875-10.035156c0-4.140625-3.359375-7.5-7.5-7.5-4.144531 0-7.5 3.359375-7.5 7.5 0 8.414062 4.976563 15.730469 12.773437 20.246094l-18.769531 11.503906c-12.171875-13.820312-19.085937-33.304688-19.085937-54.292969 0-40.066406 25.402344-72.660156 56.628906-72.660156zm103.691406 72.660156c0-9.125 7.425782-16.546875 16.550782-16.546875s16.546874 7.421875 16.546874 16.546875-7.421874 16.546875-16.546874 16.546875-16.550782-7.421875-16.550782-16.546875zm-319.609375-59.269531v22.34375l-18.183593-11.144531c.328124-.234375.660156-.460938 1.003906-.671875zm0 0"/><path d="m416.324219 131.109375h16.03125c4.140625 0 7.5-3.359375 7.5-7.5 0-4.144531-3.359375-7.5-7.5-7.5h-16.03125c-4.144531 0-7.5 3.355469-7.5 7.5 0 4.140625 3.355469 7.5 7.5 7.5zm0 0"/><path d="m79.644531 131.109375h16.03125c4.144531 0 7.5-3.359375 7.5-7.5 0-4.144531-3.355469-7.5-7.5-7.5h-16.03125c-4.140625 0-7.5 3.355469-7.5 7.5 0 4.140625 3.359375 7.5 7.5 7.5zm0 0"/></svg>