<?xml version="1.0" encoding="iso-8859-1"?>
<!-- Generator: Adobe Illustrator 19.0.0, SVG Export Plug-In . SVG Version: 6.00 Build 0)  -->
<svg version="1.1" id="Capa_1" xmlns="http://www.w3.org/2000/svg" xmlns:xlink="http://www.w3.org/1999/xlink" x="0px" y="0px"
	 viewBox="0 0 512.001 512.001" style="enable-background:new 0 0 512.001 512.001;" xml:space="preserve">
<rect x="43.132" y="342.518" style="fill:#A45E43;" width="15.223" height="50.743"/>
<path style="fill:#D5E3AA;" d="M202.973,274.014h-45.669c-32.177,0-58.355-26.177-58.355-58.355s26.177-58.355,58.355-58.355h45.669
	v15.223h-45.669c-23.783,0-43.132,19.348-43.132,43.132s19.348,43.132,43.132,43.132h45.669V274.014z"/>
<rect x="319.683" y="210.585" style="fill:#CCCCCC;" width="30.446" height="73.131"/>
<polygon style="fill:#E18F4E;" points="458.212,257.001 427.766,413.559 489.166,413.559 489.166,283.713 "/>
<polygon style="fill:#FFA754;" points="404.424,210.585 319.683,283.713 319.683,413.559 458.212,413.559 458.212,257.001 "/>
<rect x="381.59" y="314.163" style="fill:#60312C;" width="45.669" height="99.396"/>
<polygon style="fill:#869E47;" points="69.869,293.949 86.264,293.949 50.743,227.983 31.617,309.172 50.743,352.667 
	101.487,352.667 "/>
<g>
	<polygon style="fill:#9DB55F;" points="15.223,293.949 31.617,293.949 0,352.667 50.743,352.667 50.743,227.983 	"/>
	<polygon style="fill:#9DB55F;" points="473.943,383.113 443.497,428.624 473.943,471.406 504.389,471.406 504.389,383.113 	"/>
</g>
<rect y="383.113" style="fill:#B9D171;" width="473.943" height="88.293"/>
<path style="fill:#A45E43;" d="M504.385,304.46c-1.761,0-3.531-0.608-4.969-1.849l-94.991-81.972l-94.991,81.972
	c-3.183,2.748-7.99,2.392-10.735-0.789c-2.746-3.184-2.392-7.989,0.79-10.735l99.964-86.264c2.857-2.466,7.088-2.466,9.946,0
	l99.964,86.264c3.183,2.746,3.536,7.552,0.79,10.735C508.646,303.566,506.522,304.46,504.385,304.46z"/>
<g>
	<path style="fill:#9DB55F;" d="M30.446,479.017c-4.204,0-7.611-3.407-7.611-7.612v-15.223c0-4.205,3.408-7.611,7.611-7.611
		s7.611,3.407,7.611,7.611v15.223C38.057,475.611,34.65,479.017,30.446,479.017z"/>
	<path style="fill:#9DB55F;" d="M60.892,448.571c-4.204,0-7.611-3.407-7.611-7.612v-15.223c0-4.205,3.408-7.612,7.611-7.612
		s7.611,3.407,7.611,7.612v15.223C68.503,445.165,65.096,448.571,60.892,448.571z"/>
</g>
<path style="fill:#869E47;" d="M473.943,479.017c-4.204,0-7.612-3.407-7.612-7.612v-15.223c0-4.205,3.408-7.611,7.612-7.611
	s7.611,3.407,7.611,7.611v15.223C481.554,475.611,478.146,479.017,473.943,479.017z"/>
<g>
	<path style="fill:#9DB55F;" d="M443.497,448.571c-4.204,0-7.612-3.407-7.612-7.612v-15.223c0-4.205,3.408-7.612,7.612-7.612
		c4.204,0,7.611,3.407,7.611,7.612v15.223C451.108,445.165,447.7,448.571,443.497,448.571z"/>
	<path style="fill:#9DB55F;" d="M413.051,479.017c-4.204,0-7.612-3.407-7.612-7.612v-15.223c0-4.205,3.408-7.611,7.612-7.611
		c4.204,0,7.611,3.407,7.611,7.611v15.223C420.662,475.611,417.254,479.017,413.051,479.017z"/>
</g>
<g>
	<path style="fill:#FFFFFF;" d="M458.212,345.055c-4.204,0-7.611-3.407-7.611-7.612v-23.285c0-4.205,3.408-7.611,7.611-7.611
		c4.204,0,7.612,3.407,7.612,7.611v23.285C465.824,341.648,462.416,345.055,458.212,345.055z"/>
	<path style="fill:#FFFFFF;" d="M350.636,345.055c-4.204,0-7.612-3.407-7.612-7.612v-23.285c0-4.205,3.408-7.611,7.612-7.611
		c4.204,0,7.611,3.407,7.611,7.611v23.285C358.248,341.648,354.84,345.055,350.636,345.055z"/>
</g>
<path style="fill:#2DADE3;" d="M164.916,266.403v199.515l-25.24,8.413c-3.988,1.329-6.143,5.64-4.815,9.628
	c1.329,3.988,5.642,6.144,9.628,4.815l30.444-10.149c3.108-1.036,5.204-3.945,5.204-7.221V266.403H164.916z"/>
<path style="fill:#1990C2;" d="M241.031,266.403v199.515l25.24,8.413c3.988,1.329,6.143,5.64,4.815,9.628
	c-1.329,3.988-5.642,6.144-9.628,4.815l-30.444-10.149c-3.108-1.036-5.204-3.945-5.204-7.221V266.403H241.031z"/>
<path style="fill:#B9D171;" d="M339.98,65.967c-4.204,0-7.612,3.407-7.612,7.611c0,46.166-37.559,83.726-83.726,83.726h-45.669
	v15.223h45.669c54.561,0,98.949-44.388,98.949-98.949C347.592,69.374,344.184,65.967,339.98,65.967z"/>
<path style="fill:#FF8D7E;" d="M202.973,22.835v91.338c25.222,0,45.669-20.447,45.669-45.669S228.196,22.835,202.973,22.835z"/>
<path style="fill:#FFB4A9;" d="M218.196,68.504c0-25.222-6.816-45.669-15.223-45.669c-25.222,0-45.669,20.447-45.669,45.669
	s20.447,45.669,45.669,45.669C211.38,114.173,218.196,93.727,218.196,68.504z"/>
<path style="fill:#1990C2;" d="M202.973,235.957v76.115c25.222,0,45.669-20.447,45.669-45.669L202.973,235.957z"/>
<path style="fill:#2DADE3;" d="M218.196,266.403l-15.223-30.446l-45.669,30.446c0,25.222,20.447,45.669,45.669,45.669
	C211.38,312.072,218.196,291.625,218.196,266.403z"/>
<path style="fill:#B9D171;" d="M228.345,144.619h-30.446l20.297,121.784h30.446V164.916
	C248.642,153.706,239.555,144.619,228.345,144.619z"/>
<path style="fill:#D5E3AA;" d="M197.899,144.619h-20.297c-11.21,0-20.297,9.087-20.297,20.297v101.487h60.892V164.916
	C218.196,153.706,209.109,144.619,197.899,144.619z"/>
<g>
</g>
<g>
</g>
<g>
</g>
<g>
</g>
<g>
</g>
<g>
</g>
<g>
</g>
<g>
</g>
<g>
</g>
<g>
</g>
<g>
</g>
<g>
</g>
<g>
</g>
<g>
</g>
<g>
</g>
</svg>
